<svg width="28" height="20" viewBox="0 0 28 20" fill="none" xmlns="http://www.w3.org/2000/svg">
<path d="M27.4166 8.83345H3.74151L9.74576 2.8292C9.85514 2.71983 9.91666 2.57173 9.91666 2.41675V1.2501C9.91666 1.01423 9.7748 0.801225 9.55665 0.711209C9.4843 0.681022 9.40856 0.666748 9.33337 0.666748C9.18183 0.666748 9.03258 0.725975 8.92091 0.837646L0.170912 9.58765C-0.0569707 9.81553 -0.0569707 10.1847 0.170912 10.4125L8.92091 19.1625C9.08842 19.3289 9.33736 19.3796 9.55665 19.289C9.77486 19.199 9.91666 18.9859 9.91666 18.7501V17.5834C9.91666 17.4285 9.85514 17.2804 9.74576 17.171L3.74151 11.1667H27.4167C27.7391 11.1667 28 10.9058 28 10.5834V9.41675C28 9.09437 27.739 8.83345 27.4166 8.83345Z" fill="#353C4C"/>
</svg>
