<svg width="24" height="35" viewBox="0 0 24 35" fill="none" xmlns="http://www.w3.org/2000/svg">
<g clip-path="url(#clip0)">
<path d="M21.4525 17.0145C23.0355 15.1591 23.8722 12.9444 23.8722 10.6099C23.8722 7.74752 22.6092 5.06428 20.316 3.05438C18.0231 1.04495 14.9842 -0.0402134 11.7636 0.00113978C8.64265 0.0404072 5.70225 1.15359 3.48408 3.13564C1.266 5.1176 0.0288732 7.73718 0.000510941 10.5117C-0.0237705 12.8902 0.817815 15.1447 2.43426 17.0315C5.05839 20.0945 6.50364 23.8465 6.50364 27.5963V31.6994C6.50364 33.5194 8.16937 35 10.2169 35H13.6707C15.7182 35 17.384 33.5193 17.384 31.6994V27.5966C17.3841 23.8053 18.7807 20.146 21.4525 17.0145V17.0145ZM3.6518 16.2074C2.24307 14.5631 1.50963 12.5978 1.53075 10.5241C1.58166 5.5422 6.18176 1.43182 11.7853 1.36135C14.5963 1.3278 17.2428 2.27139 19.2415 4.02319C21.2408 5.77535 22.3418 8.11462 22.3418 10.61C22.3418 12.6452 21.6127 14.5756 20.2331 16.1926C17.418 19.4923 15.9023 23.3418 15.8402 27.3408H8.03184C7.96787 23.3806 6.41815 19.4364 3.6518 16.2074V16.2074ZM8.03398 31.2384V30.6878L15.8537 31.4841V31.6994C15.8537 31.8127 15.8405 31.9232 15.8194 32.0312L8.03398 31.2384ZM8.03398 29.3186V28.7011H15.8537V30.1149L8.03398 29.3186V29.3186ZM10.2169 33.6398C9.39486 33.6398 8.67815 33.2335 8.30587 32.6352L14.8932 33.3061C14.5442 33.5165 14.1234 33.6397 13.6708 33.6397H10.2169V33.6398Z" fill="#008489" fill-opacity="0.8"/>
<path d="M4.37086 11.6329C4.31118 11.277 4.28272 10.9113 4.28649 10.5462C4.29037 10.1706 3.95094 9.86334 3.52836 9.85989C3.10864 9.85662 2.76013 10.1582 2.75625 10.5338C2.75176 10.97 2.78574 11.4073 2.85726 11.8336C2.91388 12.1711 3.24035 12.4135 3.61314 12.4135C3.65069 12.4135 3.68874 12.4111 3.727 12.406C4.14488 12.3505 4.4332 12.0045 4.37086 11.6329Z" fill="#008489" fill-opacity="0.8"/>
<path d="M8.87194 21.9642C8.95111 21.9642 9.03171 21.9532 9.11109 21.93C9.51255 21.8127 9.73098 21.4283 9.59896 21.0715C8.75095 18.7792 7.48709 16.6435 5.84248 14.724C5.57069 14.4067 5.32982 14.0687 5.12669 13.7193C4.93265 13.3855 4.47099 13.2549 4.09555 13.4274C3.72021 13.5999 3.57319 14.0103 3.76724 14.344C4.01108 14.7632 4.29959 15.1682 4.62505 15.5481C6.1662 17.347 7.35058 19.3483 8.14524 21.4964C8.25114 21.7827 8.55037 21.9642 8.87194 21.9642Z" fill="#008489" fill-opacity="0.8"/>
<path d="M19.9781 12.939C19.59 12.7903 19.1398 12.9496 18.9727 13.2946C18.7303 13.795 18.4165 14.2723 18.0403 14.7132C17.7849 15.0124 17.8509 15.4391 18.1876 15.6661C18.3259 15.7593 18.4883 15.8043 18.6494 15.8043C18.8806 15.8043 19.1092 15.7115 19.2597 15.5351C19.7105 15.0066 20.0868 14.4339 20.3781 13.8327C20.5454 13.4877 20.3663 13.0875 19.9781 12.939V12.939Z" fill="#008489" fill-opacity="0.8"/>
<path d="M11.937 3.80891C16.1559 3.80891 19.5881 6.85989 19.5881 10.61C19.5881 10.8232 19.5771 11.038 19.5554 11.2485C19.5168 11.6226 19.8266 11.9536 20.2474 11.988C20.2712 11.9899 20.2947 11.9909 20.3182 11.9909C20.7093 11.9909 21.0429 11.7258 21.0793 11.3728C21.1052 11.1212 21.1185 10.8645 21.1185 10.61C21.1185 6.10982 16.9997 2.44861 11.937 2.44861C11.5145 2.44861 11.1719 2.75313 11.1719 3.12876C11.1719 3.50438 11.5145 3.80891 11.937 3.80891Z" fill="#008489" fill-opacity="0.8"/>
</g>
<defs>
<clipPath id="clip0">
<rect width="23.87" height="35" fill="white"/>
</clipPath>
</defs>
</svg>
