<svg width="30" height="30" viewBox="0 0 30 30" fill="none" xmlns="http://www.w3.org/2000/svg">
<g clip-path="url(#clip0)">
<path d="M25.228 0H4.77353C4.02036 0 3.41016 0.610838 3.41016 1.36401V28.636C3.41016 29.3892 4.02099 30 4.77353 30H25.228C25.9812 30 26.5914 29.3892 26.5914 28.636V1.36401C26.5914 0.610838 25.9812 0 25.228 0ZM23.864 2.72675V6.81751H6.13691V2.72675H23.864ZM6.13691 27.2733V9.5449H23.864V27.2713H6.13691V27.2733Z" fill="#484848"/>
<path d="M11.0125 10.7513H8.18169C7.8051 10.7513 7.5 11.057 7.5 11.4329V14.2656C7.5 14.6422 7.80574 14.9473 8.18169 14.9473H11.0125C11.3891 14.9473 11.6942 14.6416 11.6942 14.2656V11.4329C11.6948 11.0557 11.3903 10.7513 11.0125 10.7513Z" fill="#484848"/>
<path d="M16.4152 10.7513H13.585C13.2084 10.7513 12.9033 11.057 12.9033 11.4329V14.2656C12.9033 14.6422 13.2084 14.9473 13.585 14.9473H16.4152C16.7917 14.9473 17.0968 14.6416 17.0968 14.2656V11.4329C17.0975 11.0557 16.7917 10.7513 16.4152 10.7513Z" fill="#484848"/>
<path d="M21.8185 10.7513H18.9877C18.6111 10.7513 18.3066 11.057 18.3066 11.4329V14.2656C18.3066 14.6422 18.6117 14.9473 18.9877 14.9473H21.8185C22.1951 14.9473 22.5002 14.6416 22.5002 14.2656V11.4329C22.5002 11.0557 22.1951 10.7513 21.8185 10.7513Z" fill="#484848"/>
<path d="M11.0125 16.3114H8.18169C7.8051 16.3114 7.5 16.6165 7.5 16.9924V19.8251C7.5 20.2017 7.80574 20.5062 8.18169 20.5062H11.0125C11.3891 20.5062 11.6942 20.2011 11.6942 19.8251V16.9924C11.6948 16.6152 11.3903 16.3114 11.0125 16.3114Z" fill="#484848"/>
<path d="M16.4152 16.3114H13.585C13.2084 16.3114 12.9033 16.6165 12.9033 16.9924V19.8251C12.9033 20.2017 13.2084 20.5062 13.585 20.5062H16.4152C16.7917 20.5062 17.0968 20.2011 17.0968 19.8251V16.9924C17.0975 16.6152 16.7917 16.3114 16.4152 16.3114Z" fill="#484848"/>
<path d="M11.0125 21.8715H8.18169C7.8051 21.8715 7.5 22.1766 7.5 22.5519V25.3846C7.5 25.7624 7.80574 26.0663 8.18169 26.0663H11.0125C11.3891 26.0663 11.6942 25.7605 11.6942 25.3846V22.5519C11.6948 22.1753 11.3903 21.8715 11.0125 21.8715Z" fill="#484848"/>
<path d="M16.4152 21.8715H13.585C13.2084 21.8715 12.9033 22.1766 12.9033 22.5519V25.3846C12.9033 25.7624 13.2084 26.0663 13.585 26.0663H16.4152C16.7917 26.0663 17.0968 25.7605 17.0968 25.3846V22.5519C17.0975 22.1753 16.7917 21.8715 16.4152 21.8715Z" fill="#484848"/>
<path d="M21.8185 16.3114H18.9877C18.6111 16.3114 18.3066 16.6165 18.3066 16.9924V25.3846C18.3066 25.7624 18.6117 26.0663 18.9877 26.0663H21.8185C22.1951 26.0663 22.5002 25.7605 22.5002 25.3846V16.9924C22.5002 16.6152 22.1951 16.3114 21.8185 16.3114Z" fill="#484848"/>
</g>
<defs>
<clipPath id="clip0">
<rect width="29.9994" height="30" fill="white"/>
</clipPath>
</defs>
</svg>
