<svg width="55" height="55" viewBox="0 0 55 55" fill="none" xmlns="http://www.w3.org/2000/svg">
<g clip-path="url(#clip0)">
<path d="M20.6253 22.9167H45.8337C47.0492 22.9167 48.215 23.3995 49.0746 24.2591C49.9341 25.1186 50.417 26.2844 50.417 27.5V38.9583C50.417 40.1739 49.9341 41.3397 49.0746 42.1992C48.215 43.0588 47.0492 43.5417 45.8337 43.5417H20.6253C19.4098 43.5417 18.244 43.0588 17.3844 42.1992C16.5249 41.3397 16.042 40.1739 16.042 38.9583V27.5C16.042 26.2844 16.5249 25.1186 17.3844 24.2591C18.244 23.3995 19.4098 22.9167 20.6253 22.9167ZM43.0378 32.2667C42.7852 32.1008 42.4773 32.0415 42.1812 32.1016C41.885 32.1617 41.6246 32.3363 41.4566 32.5875L39.1649 36.025C38.9947 36.2772 38.9317 36.5867 38.9897 36.8854C39.0478 37.1841 39.2221 37.4475 39.4743 37.6177C39.7265 37.7879 40.036 37.8509 40.3347 37.7929C40.6334 37.7349 40.8968 37.5606 41.067 37.3083L41.0899 37.2854L43.3816 33.8479C43.5474 33.5953 43.6067 33.2874 43.5467 32.9912C43.4866 32.6951 43.3119 32.4347 43.0607 32.2667H43.0378ZM34.3753 28.6458C34.0714 28.6458 33.78 28.7665 33.5651 28.9814C33.3502 29.1963 33.2295 29.4878 33.2295 29.7917V34.375C33.2295 34.6789 33.3502 34.9703 33.5651 35.1852C33.78 35.4001 34.0714 35.5208 34.3753 35.5208C34.6792 35.5208 34.9707 35.4001 35.1856 35.1852C35.4004 34.9703 35.5212 34.6789 35.5212 34.375V29.7917C35.5212 29.4878 35.4004 29.1963 35.1856 28.9814C34.9707 28.7665 34.6792 28.6458 34.3753 28.6458ZM27.4545 30.6625C27.4169 30.5165 27.3509 30.3794 27.2603 30.259C27.1697 30.1385 27.0562 30.0371 26.9264 29.9605C26.7966 29.8839 26.653 29.8336 26.5037 29.8125C26.3545 29.7914 26.2025 29.7999 26.0566 29.8375C25.9106 29.8751 25.7735 29.9411 25.653 30.0317C25.5326 30.1223 25.4312 30.2358 25.3546 30.3656C25.2779 30.4954 25.2277 30.639 25.2066 30.7883C25.1855 30.9375 25.194 31.0894 25.2316 31.2354L26.3774 35.6812C26.4534 35.976 26.6433 36.2285 26.9055 36.3833C27.1677 36.538 27.4805 36.5822 27.7753 36.5062C28.0701 36.4303 28.3226 36.2403 28.4773 35.9781C28.6321 35.716 28.6763 35.4031 28.6003 35.1083L27.4545 30.6625Z" fill="#5AC5C2"/>
<path d="M8.02083 4.58331H29.7917C31.0072 4.58331 32.173 5.0662 33.0326 5.92574C33.8921 6.78528 34.375 7.95107 34.375 9.16665V14.8958C34.375 16.1114 33.8921 17.2772 33.0326 18.1367C32.173 18.9963 31.0072 19.4791 29.7917 19.4791H8.02083C6.80526 19.4791 5.63947 18.9963 4.77993 18.1367C3.92039 17.2772 3.4375 16.1114 3.4375 14.8958V9.16665C3.4375 7.95107 3.92039 6.78528 4.77993 5.92574C5.63947 5.0662 6.80526 4.58331 8.02083 4.58331ZM27.3167 16.6833L29.6083 13.2458C29.7785 12.9936 29.8415 12.6841 29.7835 12.3854C29.7255 12.0867 29.5512 11.8233 29.299 11.6531C29.0467 11.4829 28.7372 11.4199 28.4385 11.4779C28.1398 11.5359 27.8764 11.7102 27.7063 11.9625L27.6833 11.9854L25.3917 15.4229C25.2215 15.6751 25.1585 15.9846 25.2165 16.2833C25.2745 16.582 25.4488 16.8454 25.701 17.0156C25.9533 17.1858 26.2628 17.2488 26.5615 17.1908C26.8602 17.1328 27.1236 16.9585 27.2938 16.7062L27.3167 16.6833ZM21.7708 13.75V9.16665C21.7708 8.86275 21.6501 8.57131 21.4352 8.35642C21.2203 8.14153 20.9289 8.02081 20.625 8.02081C20.3211 8.02081 20.0297 8.14153 19.8148 8.35642C19.5999 8.57131 19.4792 8.86275 19.4792 9.16665V13.75C19.4792 14.0539 19.5999 14.3453 19.8148 14.5602C20.0297 14.7751 20.3211 14.8958 20.625 14.8958C20.9289 14.8958 21.2203 14.7751 21.4352 14.5602C21.6501 14.3453 21.7708 14.0539 21.7708 13.75ZM14.025 15.8812C14.1711 15.8438 14.3084 15.778 14.429 15.6874C14.5495 15.5969 14.6511 15.4834 14.7277 15.3535C14.8044 15.2237 14.8546 15.08 14.8756 14.9306C14.8966 14.7813 14.8879 14.6293 14.85 14.4833L13.7042 10.0375C13.6282 9.7427 13.4382 9.49018 13.1761 9.33546C12.9139 9.18074 12.601 9.13651 12.3062 9.21248C12.0115 9.28845 11.759 9.47841 11.6042 9.74057C11.4495 10.0027 11.4053 10.3156 11.4813 10.6104L12.6271 15.0562C12.6645 15.2023 12.7303 15.3396 12.8209 15.4602C12.9114 15.5808 13.0249 15.6823 13.1548 15.7589C13.2846 15.8356 13.4284 15.8858 13.5777 15.9068C13.727 15.9278 13.879 15.9191 14.025 15.8812Z" fill="#008489"/>
<path d="M55 27.5V37.8125C55.1106 39.1948 54.9197 40.5847 54.4406 41.8861C53.9614 43.1874 53.2054 44.3692 52.2248 45.3498C51.2442 46.3304 50.0624 47.0864 48.7611 47.5656C47.4597 48.0447 46.0698 48.2356 44.6875 48.125H38.9583V53.8542C38.9583 54.1581 38.8376 54.4495 38.6227 54.6644C38.4078 54.8793 38.1164 55 37.8125 55C37.603 55.002 37.3969 54.9465 37.2167 54.8396L26.0333 48.125H17.1875C14.4807 48.1494 11.8747 47.0991 9.94134 45.2044C8.00801 43.3098 6.90524 40.7255 6.875 38.0187V28.6458C6.875 28.3419 6.99572 28.0505 7.21061 27.8356C7.42549 27.6207 7.71694 27.5 8.02083 27.5C8.32473 27.5 8.61617 27.6207 8.83106 27.8356C9.04594 28.0505 9.16667 28.3419 9.16667 28.6458V37.8125C9.12363 39.8935 9.9077 41.9065 11.3469 43.4102C12.7861 44.9138 14.7629 45.7852 16.8438 45.8333C16.9507 45.8333 17.0653 45.8333 17.1875 45.8333H26.3542C26.5637 45.8313 26.7698 45.8868 26.95 45.9937L36.6667 51.8375V46.9792C36.6667 46.6753 36.7874 46.3838 37.0023 46.1689C37.2172 45.9541 37.5086 45.8333 37.8125 45.8333H44.6875C45.7682 45.9446 46.8601 45.8136 47.8839 45.4499C48.9076 45.0862 49.8374 44.4988 50.6056 43.7306C51.3738 42.9624 51.9612 42.0326 52.3249 41.0089C52.6886 39.9851 52.8196 38.8932 52.7083 37.8125V27.5C52.7083 22.7333 50.2333 20.625 44.6875 20.625H37.2854C36.5428 21.6414 35.5798 22.4766 34.4686 23.0679C33.3573 23.6593 32.1266 23.9915 30.8688 24.0396H22.9167C22.6128 24.0396 22.3213 23.9189 22.1064 23.704C21.8916 23.4891 21.7708 23.1976 21.7708 22.8937C21.7708 22.5899 21.8916 22.2984 22.1064 22.0835C22.3213 21.8686 22.6128 21.7479 22.9167 21.7479H30.8688C31.814 21.6918 32.7337 21.4187 33.5564 20.9497C34.379 20.4807 35.0826 19.8286 35.6125 19.0438C35.6354 19.0208 35.6583 18.9979 35.6583 18.9521C36.2854 18.0912 36.637 17.0605 36.6667 15.9958V7.90625C36.4769 6.45294 35.8004 5.10677 34.7475 4.08718C33.6946 3.06759 32.3274 2.43469 30.8688 2.29167H8.04375C6.57189 2.38473 5.18216 3.00239 4.12678 4.03254C3.0714 5.06269 2.42031 6.43707 2.29167 7.90625V15.9958C2.24849 16.7595 2.36711 17.5237 2.63975 18.2384C2.9124 18.953 3.33292 19.602 3.87378 20.1429C4.41465 20.6837 5.06366 21.1043 5.77831 21.3769C6.49297 21.6496 7.25715 21.7682 8.02083 21.725H14.9417C15.2456 21.725 15.537 21.8457 15.7519 22.0606C15.9668 22.2755 16.0875 22.5669 16.0875 22.8708V27.4542L19.3646 24.9563C19.606 24.7926 19.9007 24.7271 20.1887 24.7732C20.4767 24.8193 20.7363 24.9735 20.9146 25.2043C21.0928 25.4352 21.1763 25.7253 21.1481 26.0156C21.1198 26.3059 20.9819 26.5745 20.7625 26.7667L15.6521 30.6854C15.4537 30.8342 15.2125 30.9146 14.9646 30.9146C14.7899 30.9161 14.6173 30.8769 14.4604 30.8C14.2676 30.7055 14.1052 30.5587 13.9917 30.3764C13.8783 30.1941 13.8183 29.9835 13.8188 29.7687V24.0167H8.02083C5.96398 24.0847 3.96417 23.3338 2.46038 21.9289C0.956598 20.5239 0.0717242 18.5796 0 16.5229C0 16.3549 0 16.1792 0 15.9958V7.90625C0.12309 5.82608 1.01403 3.86566 2.50016 2.40494C3.98628 0.944219 5.96176 0.0872089 8.04375 0L30.8688 0C32.9313 0.156896 34.8727 1.03538 36.3521 2.48121C37.8315 3.92703 38.7542 5.84779 38.9583 7.90625V15.9958C38.9478 16.7941 38.8005 17.5848 38.5229 18.3333H44.6875C53.2125 18.3333 55 23.3062 55 27.5Z" fill="black"/>
</g>
<defs>
<clipPath id="clip0">
<rect width="55" height="55" fill="white"/>
</clipPath>
</defs>
</svg>
