<svg width="21" height="16" viewBox="0 0 21 16" fill="none" xmlns="http://www.w3.org/2000/svg">
<path d="M1.9545 4.93179C2.2121 5.11356 2.98859 5.65343 4.28402 6.55112C5.57948 7.44881 6.5719 8.14001 7.2613 8.62475C7.33705 8.67789 7.49796 8.79339 7.74414 8.97142C7.99035 9.14958 8.19493 9.29354 8.35772 9.40335C8.52063 9.51313 8.71757 9.63627 8.94874 9.77259C9.17982 9.90879 9.39766 10.0112 9.6022 10.0791C9.80678 10.1474 9.99616 10.1813 10.1704 10.1813H10.1818H10.1933C10.3675 10.1813 10.5569 10.1474 10.7615 10.0791C10.966 10.0112 11.184 9.90867 11.4149 9.77259C11.6459 9.63611 11.8428 9.51309 12.0057 9.40335C12.1687 9.29354 12.3731 9.14958 12.6194 8.97142C12.8655 8.79323 13.0266 8.67789 13.1024 8.62475C13.7992 8.14001 15.5721 6.9089 18.4205 4.93155C18.9735 4.54536 19.4355 4.07936 19.8066 3.53387C20.1781 2.98863 20.3636 2.41664 20.3636 1.81822C20.3636 1.31815 20.1836 0.890086 19.8237 0.534059C19.4638 0.177953 19.0376 0 18.5454 0H1.8181C1.23481 0 0.785924 0.196939 0.471531 0.590817C0.157177 0.984774 0 1.4772 0 2.06806C0 2.54532 0.208402 3.0625 0.625006 3.61929C1.04157 4.17612 1.48488 4.61366 1.9545 4.93179Z" fill="#B4BBC6"/>
<path d="M19.2271 6.1479C16.7425 7.82956 14.8559 9.13649 13.5682 10.0684C13.1364 10.3865 12.7861 10.6347 12.5171 10.8127C12.2481 10.9907 11.8903 11.1725 11.4432 11.358C10.9963 11.5438 10.5798 11.6364 10.1934 11.6364H10.1818H10.1704C9.78405 11.6364 9.36733 11.5438 8.92044 11.358C8.47354 11.1725 8.11553 10.9907 7.84659 10.8127C7.57773 10.6347 7.22731 10.3865 6.79554 10.0684C5.77276 9.31846 3.89022 8.01145 1.14784 6.1479C0.715913 5.86021 0.333339 5.53045 0 5.1593V14.1818C0 14.6821 0.177953 15.1099 0.534059 15.466C0.890085 15.8221 1.31819 16.0002 1.81822 16.0002H18.5455C19.0454 16.0002 19.4735 15.8221 19.8296 15.466C20.1858 15.1098 20.3636 14.6821 20.3636 14.1818V5.1593C20.0378 5.52277 19.6591 5.85253 19.2271 6.1479Z" fill="#B4BBC6"/>
</svg>
