<svg width="55" height="50" viewBox="0 0 55 50" fill="none" xmlns="http://www.w3.org/2000/svg">
<g clip-path="url(#clip0)">
<path d="M39.0823 33.1665C39.0798 31.648 21.8044 33.2735 20.9117 32.0366C20.139 31.1026 21.1973 14.6834 20 14.4422V12.2455C20.012 11.9279 20.1011 11.6177 20.2597 11.341C20.4184 11.0644 20.642 10.8293 20.9117 10.6555L31.8098 4.37924C32.0929 4.23935 32.405 4.1665 32.7216 4.1665C33.0381 4.1665 36.1986 4.16987 36.4531 4.16653L53.2455 4.1665C53.5049 4.33725 53.5002 8.19293 53.5 8.42803L53.5 8.43775C53.5 8.6888 53.2269 12.6434 53.2455 12.9567V29.0366C53.2455 30.6935 51.9024 32.0366 50.2455 32.0366H46.6303L39.0823 33.1665Z" fill="#60B6B5"/>
<path d="M61.7487 0L53.9985 0L32.582 0C32.3058 0 32.0408 0.109747 31.8455 0.305097C31.6501 0.500448 31.5404 0.765399 31.5404 1.04167C31.5404 1.31793 31.6501 1.58289 31.8455 1.77824C32.0408 1.97359 32.3058 2.08333 32.582 2.08333H53.9985H61.7487C62.3012 2.08333 62.8311 2.30283 63.2218 2.69353C63.6125 3.08423 63.832 3.61413 63.832 4.16667V29.1667C63.832 29.7192 63.6125 30.2491 63.2218 30.6398C62.8311 31.0305 62.3012 31.25 61.7487 31.25H58.6237C58.3474 31.25 58.0825 31.3597 57.8871 31.5551C57.6918 31.7504 57.582 32.0154 57.582 32.2917C57.582 32.5679 57.6918 32.8329 57.8871 33.0282C58.0825 33.2236 58.3474 33.3333 58.6237 33.3333H61.7487C62.8538 33.3333 63.9136 32.8943 64.695 32.1129C65.4764 31.3315 65.9154 30.2717 65.9154 29.1667V4.16667C65.9154 3.0616 65.4764 2.00179 64.695 1.22039C63.9136 0.438987 62.8538 0 61.7487 0ZM51.332 31.25H24.2487C23.6962 31.25 23.1663 31.0305 22.7756 30.6398C22.3849 30.2491 22.1654 29.7192 22.1654 29.1667V4.16667C22.1654 3.61413 22.3849 3.08423 22.7756 2.69353C23.1663 2.30283 23.6962 2.08333 24.2487 2.08333H26.332C26.6083 2.08333 26.8733 1.97359 27.0686 1.77824C27.264 1.58289 27.3737 1.31793 27.3737 1.04167C27.3737 0.765399 27.264 0.500448 27.0686 0.305097C26.8733 0.109747 26.6083 0 26.332 0H24.2487C23.1436 0 22.0838 0.438987 21.3024 1.22039C20.521 2.00179 20.082 3.0616 20.082 4.16667V29.1667C20.082 30.2717 20.521 31.3315 21.3024 32.1129C22.0838 32.8943 23.1436 33.3333 24.2487 33.3333H51.332C51.6083 33.3333 51.8733 33.2236 52.0686 33.0282C52.264 32.8329 52.3737 32.5679 52.3737 32.2917C52.3737 32.0154 52.264 31.7504 52.0686 31.5551C51.8733 31.3597 51.6083 31.25 51.332 31.25Z" fill="black"/>
<path d="M41.25 4.1665C40.8 4.1665 40.5 4.60282 40.5 5.25737V27.0756C40.5 27.7302 40.8 28.1665 41.25 28.1665C41.7 28.1665 42 27.7302 42 27.0756V5.25737C42 4.60282 41.7 4.1665 41.25 4.1665Z" fill="black"/>
<path d="M45.25 4.1665C44.8 4.1665 44.5 4.60282 44.5 5.25737V27.0756C44.5 27.7302 44.8 28.1665 45.25 28.1665C45.7 28.1665 46 27.7302 46 27.0756V5.25737C46 4.60282 45.7 4.1665 45.25 4.1665Z" fill="black"/>
<path d="M49.25 4.1665C48.8 4.1665 48.5 4.60282 48.5 5.25737V27.0756C48.5 27.7302 48.8 28.1665 49.25 28.1665C49.7 28.1665 50 27.7302 50 27.0756V5.25737C50 4.60282 49.7 4.1665 49.25 4.1665Z" fill="black"/>
<path d="M53.25 4.1665C52.8 4.1665 52.5 4.60282 52.5 5.25737V27.0756C52.5 27.7302 52.8 28.1665 53.25 28.1665C53.7 28.1665 54 27.7302 54 27.0756V5.25737C54 4.60282 53.7 4.1665 53.25 4.1665Z" fill="black"/>
<path d="M37.25 4.1665C36.8 4.1665 36.5 4.60282 36.5 5.25737V27.0756C36.5 27.7302 36.8 28.1665 37.25 28.1665C37.7 28.1665 38 27.7302 38 27.0756V5.25737C38 4.60282 37.7 4.1665 37.25 4.1665Z" fill="black"/>
<path d="M33.25 4.1665C32.8 4.1665 32.5 4.60282 32.5 5.25737V27.0756C32.5 27.7302 32.8 28.1665 33.25 28.1665C33.7 28.1665 34 27.7302 34 27.0756V5.25737C34 4.60282 33.7 4.1665 33.25 4.1665Z" fill="black"/>
<path d="M29.25 4.1665C28.8 4.1665 28.5 4.35739 28.5 4.64376V14.1892C28.5 14.4756 28.8 14.6665 29.25 14.6665C29.7 14.6665 30 14.4756 30 14.1892V4.64376C30 4.35739 29.7 4.1665 29.25 4.1665Z" fill="black"/>
<path d="M25.25 4.1665C24.8 4.1665 24.5 4.30285 24.5 4.5074V11.3256C24.5 11.5302 24.8 11.6665 25.25 11.6665C25.7 11.6665 26 11.5302 26 11.3256V4.5074C26 4.30285 25.7 4.1665 25.25 4.1665Z" fill="black"/>
<path fill-rule="evenodd" clip-rule="evenodd" d="M34.6149 38.7333L28.334 32.464C30.0927 30.7085 31.2233 28.577 31.6001 25.9438C32.4794 19.5491 28.0828 13.7813 21.8019 12.7782C15.521 11.9005 9.61691 16.289 8.61196 22.6838C7.73263 29.0785 12.1293 34.8463 18.4102 35.8494C21.5506 36.351 24.5655 35.4733 26.8266 33.7178V33.8432L33.1075 40.1126C33.4844 40.4887 34.1125 40.4887 34.4893 40.1126C34.8662 39.7364 34.9918 39.1095 34.6149 38.7333Z" fill="white"/>
<path fill-rule="evenodd" clip-rule="evenodd" d="M18.787 33.9686C13.5111 33.2163 9.74253 28.3262 10.4962 22.9345C11.2499 17.6683 16.1491 13.9067 21.5506 14.659C26.8266 15.4113 30.5952 20.3014 29.8415 25.6931C29.0877 30.9593 24.063 34.7209 18.787 33.9686ZM34.6149 38.7333L28.334 32.464C30.0927 30.7085 31.2233 28.577 31.6001 25.9438C32.4794 19.5491 28.0828 13.7813 21.8019 12.7782C15.521 11.9005 9.61691 16.289 8.61196 22.6838C7.73263 29.0785 12.1293 34.8463 18.4102 35.8494C21.5506 36.351 24.5655 35.4733 26.8266 33.7178V33.8432L33.1075 40.1126C33.4844 40.4887 34.1125 40.4887 34.4893 40.1126C34.8662 39.7364 34.9918 39.1095 34.6149 38.7333Z" fill="black"/>
</g>
<defs>
<clipPath id="clip0">
<rect width="54.1667" height="50" fill="white"/>
</clipPath>
</defs>
</svg>
