<svg width="150" height="150" viewBox="0 0 150 150" fill="none" xmlns="http://www.w3.org/2000/svg">
<g filter="url(#filter0_d)">
<circle cx="75" cy="75" r="60" fill="url(#paint0_linear)"/>
</g>
<path d="M66.1959 105H64.4186C64.1021 105 63.8278 104.78 63.7607 104.47L62.9828 100.915C62.9391 100.716 62.989 100.508 63.1168 100.349C63.2447 100.19 63.438 100.098 63.6422 100.098H66.7525C66.9489 100.098 67.136 100.184 67.2638 100.334C67.3916 100.483 67.4478 100.681 67.4181 100.875L66.8631 104.429C66.8101 104.758 66.528 105 66.1959 105ZM64.9612 103.653H65.6206L65.9652 101.445H64.4779L64.9612 103.653Z" fill="white"/>
<path d="M104.812 105H103.035C102.718 105 102.444 104.78 102.377 104.47L101.599 100.915C101.555 100.716 101.605 100.508 101.733 100.349C101.861 100.19 102.054 100.098 102.258 100.098H105.369C105.565 100.098 105.752 100.184 105.88 100.334C106.008 100.483 106.064 100.681 106.034 100.876L105.479 104.431C105.426 104.758 105.144 105 104.812 105ZM103.577 103.653H104.235L104.58 101.445H103.093L103.577 103.653Z" fill="white"/>
<path d="M86.8962 86.3387H81.6002C81.2292 86.3387 80.9268 86.0378 80.9268 85.6652C80.9268 85.2926 81.2292 84.9917 81.6002 84.9917H86.8962C87.2688 84.9917 87.5697 85.2941 87.5697 85.6652C87.5697 86.0362 87.2672 86.3387 86.8962 86.3387Z" fill="white"/>
<path d="M76.6943 98.4458H70.6952C69.6834 98.4458 68.6966 98.2509 67.7643 97.8658C67.4197 97.7239 67.256 97.3295 67.3979 96.9865C67.5398 96.6435 67.9326 96.4799 68.2772 96.6202C69.0458 96.9382 69.8596 97.0988 70.6952 97.0988H76.6943C80.2129 97.0988 83.0753 94.2364 83.0753 90.7178C83.0753 87.1991 80.2129 84.3367 76.6943 84.3367H70.6952C67.1765 84.3367 64.3142 87.1991 64.3142 90.7178C64.3142 91.2946 64.3921 91.8652 64.5465 92.4171C64.6462 92.7756 64.4358 93.1467 64.0788 93.2465C63.7202 93.3478 63.3491 93.1373 63.2494 92.7788C63.0623 92.1084 62.9688 91.4162 62.9688 90.7178C62.9688 86.457 66.436 82.9897 70.6968 82.9897H76.6958C80.9566 82.9897 84.4238 86.457 84.4238 90.7178C84.4238 94.9785 80.955 98.4458 76.6943 98.4458Z" fill="white"/>
<path d="M97.7998 98.4458H91.8008C87.54 98.4458 84.0728 94.9785 84.0728 90.7178C84.0728 86.457 87.54 82.9897 91.8008 82.9897H97.7998C102.061 82.9897 105.526 86.457 105.526 90.7178C105.526 91.4443 105.423 92.1645 105.222 92.8583C105.118 93.2153 104.745 93.418 104.388 93.3182C104.031 93.2137 103.825 92.8396 103.93 92.4841C104.095 91.912 104.179 91.318 104.179 90.7193C104.179 87.2006 101.317 84.3383 97.7998 84.3383H91.8008C88.2821 84.3383 85.4197 87.2006 85.4197 90.7193C85.4197 94.238 88.2821 97.1003 91.8008 97.1003H97.7998C98.623 97.1003 99.4259 96.9429 100.187 96.6342C100.531 96.4908 100.924 96.6591 101.064 97.0037C101.205 97.3482 101.039 97.7411 100.695 97.8814C99.772 98.2556 98.7992 98.4458 97.7998 98.4458Z" fill="white"/>
<path d="M106.493 98.0952H101.131C100.378 98.0952 99.7642 97.4825 99.7642 96.7279V93.3636C99.7642 92.609 100.377 91.9963 101.131 91.9963H106.493C107.246 91.9963 107.86 92.609 107.86 93.3636V96.7279C107.86 97.4825 107.247 98.0952 106.493 98.0952ZM101.131 93.3433L101.111 96.7279L106.493 96.7482C106.504 96.7482 106.513 96.7388 106.513 96.7279V93.3636L101.131 93.3433Z" fill="white"/>
<path d="M67.9465 98.0952H62.585C61.832 98.0952 61.2178 97.4825 61.2178 96.7279V93.3636C61.2178 92.609 61.8305 91.9963 62.585 91.9963H67.9465C68.6995 91.9963 69.3137 92.609 69.3137 93.3636V96.7279C69.3137 97.4825 68.6995 98.0952 67.9465 98.0952ZM62.585 93.3433L62.5648 96.7279L67.9465 96.7482C67.9574 96.7482 67.9667 96.7388 67.9667 96.7279V93.3636L62.585 93.3433Z" fill="white"/>
<path d="M108.076 101.445H60.6413C60.2687 101.445 59.9678 101.143 59.9678 100.772V97.6617C59.9678 96.257 61.3413 95.2281 61.4972 95.1159C61.7996 94.8991 62.219 94.9662 62.4372 95.2686C62.6539 95.5711 62.5853 95.992 62.2845 96.2087C62.035 96.3927 61.3148 97.0537 61.3148 97.6617V100.098H107.402V97.6617C107.402 96.8604 106.715 96.1432 106.708 96.1354C106.447 95.8704 106.45 95.4432 106.715 95.1829C106.98 94.9225 107.407 94.9257 107.667 95.1891C107.778 95.3014 108.749 96.3241 108.749 97.6617V100.772C108.749 101.143 108.447 101.445 108.076 101.445Z" fill="white"/>
<path d="M92.1903 56.8627C91.8193 56.8627 91.517 56.5618 91.517 56.1892V50.4567H54.821C54.4483 50.4567 54.1475 50.1558 54.1475 49.7832C54.1475 49.4106 54.4499 49.1097 54.821 49.1097H92.1903C92.5614 49.1097 92.8638 49.4122 92.8638 49.7832V56.1892C92.8638 56.5602 92.5614 56.8627 92.1903 56.8627Z" fill="white"/>
<path d="M92.1909 77.4508H49.5504C49.1794 77.4508 48.877 77.1483 48.877 76.7773V72.3201C48.877 71.9475 49.1794 71.6466 49.5504 71.6466C49.923 71.6466 50.2239 71.9475 50.2239 72.3201V76.1038H91.5174V62.3065C91.5174 61.9339 91.8199 61.6331 92.1909 61.6331C92.562 61.6331 92.8644 61.9339 92.8644 62.3065V76.7773C92.8644 77.1499 92.562 77.4508 92.1909 77.4508Z" fill="white"/>
<path d="M61.2599 77.451C60.8889 77.451 60.5864 77.1485 60.5864 76.7775V49.7832C60.5864 49.4106 60.8889 49.1097 61.2599 49.1097C61.6325 49.1097 61.9334 49.4122 61.9334 49.7832V76.7775C61.9334 77.1501 61.6325 77.451 61.2599 77.451Z" fill="white"/>
<path d="M71.5915 77.451C71.2189 77.451 70.918 77.1485 70.918 76.7775V49.7832C70.918 49.4106 71.2204 49.1097 71.5915 49.1097C71.9625 49.1097 72.265 49.4122 72.265 49.7832V76.7775C72.265 77.1501 71.9641 77.451 71.5915 77.451Z" fill="white"/>
<path d="M81.923 77.4508C81.552 77.4508 81.2495 77.1483 81.2495 76.7773V62.3065C81.2495 61.9339 81.552 61.6331 81.923 61.6331C82.2956 61.6331 82.5965 61.9339 82.5965 62.3065V76.7773C82.5965 77.1499 82.294 77.4508 81.923 77.4508Z" fill="white"/>
<path d="M81.923 57.6933C81.552 57.6933 81.2495 57.3909 81.2495 57.0198V49.7845C81.2495 49.4119 81.552 49.111 81.923 49.111C82.2956 49.111 82.5965 49.4134 82.5965 49.7845V57.0198C82.5965 57.3909 82.294 57.6933 81.923 57.6933Z" fill="white"/>
<path d="M46.8674 75.1697H45.6452C45.2741 75.1697 44.9717 74.8672 44.9717 74.4962V46.6725C44.9717 46.3015 45.2741 45.999 45.6452 45.999H54.8652C55.2315 45.999 55.5308 46.2921 55.5386 46.6585C55.5574 47.5689 55.891 69.024 47.2525 75.0481C47.1403 75.1276 47.0046 75.1697 46.8674 75.1697ZM46.3187 73.8227H46.6507C53.7411 68.6078 54.1807 50.9863 54.1948 47.346H46.3187V73.8227Z" fill="white"/>
<path d="M46.8674 93.3433H45.6452C45.2741 93.3433 44.9717 93.0424 44.9717 92.6698V77.3915C44.9717 77.0189 45.2741 76.718 45.6452 76.718H46.8674C47.1216 76.718 47.3538 76.8614 47.4692 77.0891C47.5877 77.3245 50.3783 82.9291 50.9084 89.1496C50.9411 89.519 50.6652 89.8464 50.2957 89.8776C49.9184 89.9072 49.5988 89.6344 49.5676 89.2634C49.1342 84.1841 47.0654 79.4042 46.4434 78.065H46.3202V91.9963H46.869C47.24 91.9963 47.5425 92.2988 47.5425 92.6698C47.5425 93.0408 47.2385 93.3433 46.8674 93.3433Z" fill="white"/>
<path d="M87.6354 55.3437C87.2644 55.3437 86.9619 55.0413 86.9619 54.6702V46.6725C86.9619 46.3015 87.2644 45.999 87.6354 45.999C88.008 45.999 88.3089 46.2999 88.3089 46.6725V54.6702C88.3089 55.0428 88.008 55.3437 87.6354 55.3437Z" fill="white"/>
<path d="M95.2711 62.9801H80.0006C79.628 62.9801 79.3271 62.6792 79.3271 62.3066C79.3271 57.7247 83.0547 53.9971 87.6351 53.9971C92.2155 53.9971 95.9431 57.7247 95.9431 62.3066C95.9446 62.6776 95.6422 62.9801 95.2711 62.9801ZM80.7069 61.6331H94.5649C94.225 58.1097 91.2473 55.3441 87.6351 55.3441C84.0244 55.3441 81.0467 58.1097 80.7069 61.6331Z" fill="white"/>
<path d="M94.8007 47.346H43.8678C43.4952 47.346 43.1943 47.0436 43.1943 46.6725C43.1943 46.3015 43.4952 45.999 43.8678 45.999H94.8007C95.1717 45.999 95.4742 46.2999 95.4742 46.6725C95.4742 47.0451 95.1733 47.346 94.8007 47.346Z" fill="white"/>
<path d="M95.8001 47.6721C96.352 47.6721 96.7994 47.2247 96.7994 46.6728C96.7994 46.1209 96.352 45.6735 95.8001 45.6735C95.2482 45.6735 94.8008 46.1209 94.8008 46.6728C94.8008 47.2247 95.2482 47.6721 95.8001 47.6721Z" fill="white"/>
<path d="M95.7998 48.3456C94.8768 48.3456 94.127 47.5958 94.127 46.6728C94.127 45.7499 94.8784 45 95.7998 45C96.7227 45 97.4726 45.7499 97.4726 46.6728C97.4726 47.5958 96.7227 48.3456 95.7998 48.3456ZM95.7998 46.347C95.6205 46.347 95.4739 46.4935 95.4739 46.6728C95.4739 46.8521 95.6205 46.9986 95.7998 46.9986C95.9791 46.9986 96.1256 46.8521 96.1256 46.6728C96.1272 46.4935 95.9806 46.347 95.7998 46.347Z" fill="white"/>
<path d="M42.9227 47.6721C43.4746 47.6721 43.922 47.2247 43.922 46.6728C43.922 46.1209 43.4746 45.6735 42.9227 45.6735C42.3708 45.6735 41.9233 46.1209 41.9233 46.6728C41.9233 47.2247 42.3708 47.6721 42.9227 47.6721Z" fill="white"/>
<path d="M42.9228 48.3456C41.9999 48.3456 41.25 47.5958 41.25 46.6728C41.25 45.7499 41.9999 45 42.9228 45C43.8458 45 44.5956 45.7499 44.5956 46.6728C44.5956 47.5958 43.8458 48.3456 42.9228 48.3456ZM42.9228 46.347C42.7435 46.347 42.597 46.4935 42.597 46.6728C42.597 46.8521 42.7435 46.9986 42.9228 46.9986C43.1021 46.9986 43.2502 46.8521 43.2502 46.6728C43.2502 46.4935 43.1037 46.347 42.9228 46.347Z" fill="white"/>
<path d="M46.1468 76.9486C46.7926 76.9486 47.3161 76.4251 47.3161 75.7794C47.3161 75.1336 46.7926 74.6101 46.1468 74.6101C45.501 74.6101 44.9775 75.1336 44.9775 75.7794C44.9775 76.4251 45.501 76.9486 46.1468 76.9486Z" fill="white"/>
<path d="M46.1469 77.6224C45.1305 77.6224 44.3042 76.7961 44.3042 75.7796C44.3042 74.7632 45.1305 73.9369 46.1469 73.9369C47.1634 73.9369 47.9897 74.7632 47.9897 75.7796C47.9897 76.7961 47.1634 77.6224 46.1469 77.6224ZM46.1469 75.2839C45.8741 75.2839 45.6512 75.5053 45.6512 75.7796C45.6512 76.0525 45.8741 76.2754 46.1469 76.2754C46.4198 76.2754 46.6427 76.054 46.6427 75.7796C46.6427 75.5068 46.4213 75.2839 46.1469 75.2839Z" fill="white"/>
<path d="M58.4191 103.223H46.8669C46.4942 103.223 46.1934 102.922 46.1934 102.549V89.4412C46.1934 89.0686 46.4942 88.7677 46.8669 88.7677H58.4191C58.7917 88.7677 59.0926 89.0701 59.0926 89.4412V102.549C59.0926 102.92 58.7917 103.223 58.4191 103.223ZM47.5403 101.876H57.7456V90.1147H47.5403V101.876Z" fill="white"/>
<path d="M58.4191 94.5046H46.8669C46.4942 94.5046 46.1934 94.2021 46.1934 93.8311C46.1934 93.4585 46.4942 93.1576 46.8669 93.1576H58.4191C58.7917 93.1576 59.0926 93.46 59.0926 93.8311C59.0926 94.2021 58.7917 94.5046 58.4191 94.5046Z" fill="white"/>
<path d="M58.4191 98.8327H46.8669C46.4942 98.8327 46.1934 98.5303 46.1934 98.1592C46.1934 97.7866 46.4942 97.4857 46.8669 97.4857H58.4191C58.7917 97.4857 59.0926 97.7882 59.0926 98.1592C59.0926 98.5318 58.7917 98.8327 58.4191 98.8327Z" fill="white"/>
<defs>
<filter id="filter0_d" x="0" y="0" width="150" height="150" filterUnits="userSpaceOnUse" color-interpolation-filters="sRGB">
<feFlood flood-opacity="0" result="BackgroundImageFix"/>
<feColorMatrix in="SourceAlpha" type="matrix" values="0 0 0 0 0 0 0 0 0 0 0 0 0 0 0 0 0 0 127 0"/>
<feOffset/>
<feGaussianBlur stdDeviation="7.5"/>
<feColorMatrix type="matrix" values="0 0 0 0 0 0 0 0 0 0 0 0 0 0 0 0 0 0 0.25 0"/>
<feBlend mode="normal" in2="BackgroundImageFix" result="effect1_dropShadow"/>
<feBlend mode="normal" in="SourceGraphic" in2="effect1_dropShadow" result="shape"/>
</filter>
<linearGradient id="paint0_linear" x1="15" y1="-13.125" x2="128.625" y2="170.625" gradientUnits="userSpaceOnUse">
<stop stop-color="#353C4C" stop-opacity="0.7"/>
<stop offset="0.59116" stop-color="#353C4C"/>
<stop offset="1" stop-color="#353C4C" stop-opacity="0.7"/>
</linearGradient>
</defs>
</svg>
