<svg width="55" height="40" viewBox="0 0 55 40" fill="none" xmlns="http://www.w3.org/2000/svg">
<path d="M44.1499 6.27517L7.04989 30.4002C6.59521 30.6938 6.24812 31.1271 6.06078 31.6349C5.87343 32.1427 5.85596 32.6976 6.01097 33.2162C6.16598 33.7348 6.48512 34.1891 6.92041 34.5108C7.3557 34.8325 7.88364 35.0042 8.42489 35.0002H47.4749C48.1379 35.0002 48.7738 34.7368 49.2427 34.2679C49.7115 33.7991 49.9749 33.1632 49.9749 32.5002V9.40018C49.9767 8.72365 49.7954 8.05923 49.4503 7.47734C49.1052 6.89545 48.6091 6.41775 48.0146 6.09487C47.4201 5.77199 46.7493 5.61595 46.0734 5.64329C45.3974 5.67063 44.7414 5.88033 44.1749 6.25017L44.1499 6.27517Z" fill="#5AC5C2"/>
<path d="M20.625 20C20.625 20.6181 20.4417 21.2223 20.0983 21.7362C19.755 22.2501 19.2669 22.6506 18.6959 22.8871C18.1249 23.1236 17.4965 23.1855 16.8903 23.065C16.2842 22.9444 15.7273 22.6467 15.2903 22.2097C14.8533 21.7727 14.5556 21.2158 14.435 20.6097C14.3145 20.0035 14.3764 19.3751 14.6129 18.8041C14.8494 18.2331 15.2499 17.745 15.7638 17.4017C16.2777 17.0583 16.8819 16.875 17.5 16.875C18.3288 16.875 19.1237 17.2042 19.7097 17.7903C20.2958 18.3763 20.625 19.1712 20.625 20ZM50 0H15C14.6685 0 14.3505 0.131696 14.1161 0.366117C13.8817 0.600537 13.75 0.918479 13.75 1.25C13.75 1.58152 13.8817 1.89946 14.1161 2.13388C14.3505 2.3683 14.6685 2.5 15 2.5H50C50.663 2.5 51.2989 2.76339 51.7678 3.23223C52.2366 3.70107 52.5 4.33696 52.5 5V35C52.5 35.663 52.2366 36.2989 51.7678 36.7678C51.2989 37.2366 50.663 37.5 50 37.5H46.25C45.9185 37.5 45.6005 37.6317 45.3661 37.8661C45.1317 38.1005 45 38.4185 45 38.75C45 39.0815 45.1317 39.3995 45.3661 39.6339C45.6005 39.8683 45.9185 40 46.25 40H50C51.3261 40 52.5979 39.4732 53.5355 38.5355C54.4732 37.5979 55 36.3261 55 35V5C55 3.67392 54.4732 2.40215 53.5355 1.46447C52.5979 0.526784 51.3261 0 50 0ZM37.5 37.5H5C4.33696 37.5 3.70107 37.2366 3.23223 36.7678C2.76339 36.2989 2.5 35.663 2.5 35V5C2.5 4.33696 2.76339 3.70107 3.23223 3.23223C3.70107 2.76339 4.33696 2.5 5 2.5H7.5C7.83152 2.5 8.14946 2.3683 8.38388 2.13388C8.6183 1.89946 8.75 1.58152 8.75 1.25C8.75 0.918479 8.6183 0.600537 8.38388 0.366117C8.14946 0.131696 7.83152 0 7.5 0H5C3.67392 0 2.40215 0.526784 1.46447 1.46447C0.526784 2.40215 0 3.67392 0 5V35C0 36.3261 0.526784 37.5979 1.46447 38.5355C2.40215 39.4732 3.67392 40 5 40H37.5C37.8315 40 38.1495 39.8683 38.3839 39.6339C38.6183 39.3995 38.75 39.0815 38.75 38.75C38.75 38.4185 38.6183 38.1005 38.3839 37.8661C38.1495 37.6317 37.8315 37.5 37.5 37.5ZM19.575 9.575C17.4269 9.14726 15.1992 9.39381 13.1966 10.2809C11.194 11.168 9.51458 12.6523 8.38808 14.5307C7.26157 16.409 6.74308 18.5896 6.90356 20.7739C7.06405 22.9583 7.89568 25.0397 9.28461 26.7332C10.6735 28.4267 12.5519 29.6496 14.6626 30.2345C16.7733 30.8194 19.0132 30.7378 21.0757 30.0007C23.1382 29.2636 24.9225 27.9071 26.1844 26.1169C27.4463 24.3267 28.1241 22.1902 28.125 20C28.1276 18.3315 27.7334 16.6862 26.975 15.2C26.8123 14.9296 26.5533 14.7307 26.25 14.6433C25.9467 14.556 25.6216 14.5865 25.3399 14.729C25.0583 14.8714 24.8409 15.1151 24.7315 15.4111C24.6221 15.7072 24.6287 16.0336 24.75 16.325C25.523 17.8559 25.7918 19.5921 25.5179 21.2851C25.244 22.9781 24.4414 24.541 23.225 25.75C21.5977 24.4714 19.5858 23.7805 17.5163 23.7896C15.4467 23.7987 13.4411 24.5072 11.825 25.8C10.674 24.6709 9.88504 23.2249 9.55841 21.646C9.23179 20.0671 9.3823 18.4267 9.99079 16.9336C10.5993 15.4405 11.6383 14.1622 12.9755 13.2614C14.3127 12.3606 15.8877 11.878 17.5 11.875C18.0286 11.8744 18.556 11.9247 19.075 12.025C19.2401 12.0673 19.412 12.0753 19.5803 12.0487C19.7486 12.0221 19.9097 11.9614 20.0536 11.8703C20.1976 11.7792 20.3214 11.6596 20.4175 11.5188C20.5135 11.3781 20.5798 11.2193 20.6122 11.052C20.6447 10.8847 20.6426 10.7126 20.6061 10.5462C20.5695 10.3798 20.4994 10.2226 20.3999 10.0842C20.3004 9.94591 20.1737 9.82938 20.0276 9.74181C19.8814 9.65424 19.7189 9.59748 19.55 9.575H19.575ZM33.75 17.5H47.5C47.8315 17.5 48.1495 17.3683 48.3839 17.1339C48.6183 16.8995 48.75 16.5815 48.75 16.25C48.75 15.9185 48.6183 15.6005 48.3839 15.3661C48.1495 15.1317 47.8315 15 47.5 15H33.75C33.4185 15 33.1005 15.1317 32.8661 15.3661C32.6317 15.6005 32.5 15.9185 32.5 16.25C32.5 16.5815 32.6317 16.8995 32.8661 17.1339C33.1005 17.3683 33.4185 17.5 33.75 17.5ZM33.75 22.5H47.5C47.8315 22.5 48.1495 22.3683 48.3839 22.1339C48.6183 21.8995 48.75 21.5815 48.75 21.25C48.75 20.9185 48.6183 20.6005 48.3839 20.3661C48.1495 20.1317 47.8315 20 47.5 20H33.75C33.4185 20 33.1005 20.1317 32.8661 20.3661C32.6317 20.6005 32.5 20.9185 32.5 21.25C32.5 21.5815 32.6317 21.8995 32.8661 22.1339C33.1005 22.3683 33.4185 22.5 33.75 22.5ZM33.75 27.5H47.5C47.8315 27.5 48.1495 27.3683 48.3839 27.1339C48.6183 26.8995 48.75 26.5815 48.75 26.25C48.75 25.9185 48.6183 25.6005 48.3839 25.3661C48.1495 25.1317 47.8315 25 47.5 25H33.75C33.4185 25 33.1005 25.1317 32.8661 25.3661C32.6317 25.6005 32.5 25.9185 32.5 26.25C32.5 26.5815 32.6317 26.8995 32.8661 27.1339C33.1005 27.3683 33.4185 27.5 33.75 27.5Z" fill="#333333"/>
</svg>
