<svg width="403" height="206" viewBox="0 0 403 206" fill="none" xmlns="http://www.w3.org/2000/svg">
<path d="M53.3438 30L220.14 12V48L53.3438 30Z" fill="#E5FAF9"/>
<path d="M30.3284 202.448H87.1562L76.501 56.8274H40.9837L30.3284 202.448Z" fill="#EDEDEE"/>
<path d="M78.2354 81.6895H39.249L39.9925 71.0346H77.4918L78.2354 81.6895Z" fill="#CAC9CD"/>
<path d="M40.9836 21.3105H76.501V46.1726H40.9836V21.3105Z" fill="#DCDBDE"/>
<path d="M35.6564 49.7241H81.8285C82.8095 49.7241 83.6045 48.929 83.6045 47.9481V44.3962C83.6045 43.4153 82.8095 42.6203 81.8285 42.6203H35.6559C34.675 42.6203 33.88 43.4153 33.88 44.3962V47.9481C33.8804 48.929 34.6754 49.7241 35.6564 49.7241Z" fill="#EDEDEE"/>
<path d="M55.1904 7.38985V3.55189C55.1904 1.59046 56.7809 0 58.7423 0C60.7037 0 62.2942 1.59046 62.2942 3.55189V7.38985C70.3998 8.70632 76.501 14.4373 76.501 21.3105H40.9836C40.9836 14.4373 47.0852 8.70632 55.1904 7.38985Z" fill="#A7A5AC"/>
<path d="M80.0527 49.7241L76.5008 56.8274H40.9836L37.4317 49.7241H80.0527Z" fill="#DCDBDE"/>
<path d="M56.9664 42.6207H76.501V21.3105H56.9664C55.9855 21.3105 55.1904 22.1056 55.1904 23.0865V40.8451C55.1904 41.8257 55.9859 42.6207 56.9664 42.6207Z" fill="#B4E1FA"/>
<path d="M56.9664 21.3105H76.501V28.4139H56.9664C55.9855 28.4139 55.1904 29.209 55.1904 30.1899V23.0861C55.1904 22.1056 55.9859 21.3105 56.9664 21.3105Z" fill="#A0D2F0"/>
<path d="M32.1043 67.4827H85.3803C86.3612 67.4827 87.1562 68.2777 87.1562 69.2586V72.8105C87.1562 73.7914 86.3612 74.5865 85.3803 74.5865H83.6044L78.672 83.9321C78.2467 84.7376 77.4111 85.2418 76.5002 85.2418H74.9741C73.9779 85.2418 73.2742 84.2657 73.5892 83.3202L76.5006 74.5865H69.3972L67.9262 83.4131C67.7444 84.5047 67.2334 85.2418 66.6576 85.2418H65.033C64.4576 85.2418 63.9466 84.5051 63.7644 83.4131L62.293 74.5865H55.1896L53.7187 83.4131C53.5368 84.5047 53.0254 85.2418 52.4501 85.2418H50.8254C50.2501 85.2418 49.7391 84.5051 49.5568 83.4131L48.0854 74.5865H40.9821L43.893 83.3202C44.208 84.2653 43.5044 85.2418 42.5082 85.2418H40.9821C40.0716 85.2418 39.2355 84.738 38.8102 83.9321L33.8783 74.5865H32.1023C31.1214 74.5865 30.3264 73.7914 30.3264 72.8105V69.2586C30.3284 68.2777 31.1238 67.4827 32.1043 67.4827Z" fill="#DCDBDE"/>
<path d="M27.1073 202.448L29.2225 179.238C29.2872 178.308 30.0609 177.586 30.994 177.586H86.4913C87.4239 177.586 88.198 178.308 88.2628 179.238L90.3779 202.448H27.1073Z" fill="#EDEDEE"/>
<path d="M80.7129 117.207H36.7713L38.7533 88.7932H78.7309L80.7129 117.207Z" fill="#FF6464"/>
<path d="M84.9258 177.586H32.5583L34.045 156.276H83.4391L84.9258 177.586Z" fill="#FF6464"/>
<path d="M53.4145 184.689H64.0698C65.0507 184.689 65.8457 185.484 65.8457 186.465V202.448H51.6389V186.465C51.6385 185.485 52.4336 184.689 53.4145 184.689Z" fill="#FF6464"/>
<path d="M21.4491 206H96.0356C97.0165 206 97.8115 205.205 97.8115 204.224V200.672C97.8115 199.691 97.0165 198.896 96.0356 198.896H21.4491C20.4682 198.896 19.6731 199.691 19.6731 200.672V204.224C19.6735 205.205 20.4686 206 21.4491 206Z" fill="#A7A5AC"/>
<path d="M56.9661 110.103H60.518C61.4989 110.103 62.2939 109.308 62.2939 108.327V101.224C62.2939 100.243 61.4989 99.4481 60.518 99.4481H56.9661C55.9852 99.4481 55.1902 100.243 55.1902 101.224V108.327C55.1902 109.308 55.9856 110.103 56.9661 110.103Z" fill="#656E83"/>
<path d="M56.9661 99.4481H60.518C61.4989 99.4481 62.2939 100.243 62.2939 101.224V108.327C62.2939 107.347 61.4989 106.551 60.518 106.551H56.9661C55.9852 106.551 55.1902 107.347 55.1902 108.327V101.224C55.1902 100.244 55.9856 99.4481 56.9661 99.4481Z" fill="#494F5E"/>
<path d="M56.9661 149.173H60.518C61.4989 149.173 62.2939 148.378 62.2939 147.397V140.293C62.2939 139.312 61.4989 138.517 60.518 138.517H56.9661C55.9852 138.517 55.1902 139.312 55.1902 140.293V147.397C55.1902 148.377 55.9856 149.173 56.9661 149.173Z" fill="#656E83"/>
<path d="M56.9661 138.517H60.518C61.4989 138.517 62.2939 139.312 62.2939 140.293V147.397C62.2939 146.416 61.4989 145.621 60.518 145.621H56.9661C55.9852 145.621 55.1902 146.416 55.1902 147.397V140.293C55.1902 139.312 55.9856 138.517 56.9661 138.517Z" fill="#494F5E"/>
</svg>
