<svg width="55" height="55" viewBox="0 0 55 55" fill="none" xmlns="http://www.w3.org/2000/svg">
<path d="M44.2391 50.2174C44.0027 50.2174 43.7715 50.1473 43.5749 50.0159C43.3782 49.8845 43.225 49.6978 43.1345 49.4793C43.044 49.2608 43.0203 49.0204 43.0665 48.7885C43.1126 48.5565 43.2265 48.3435 43.3937 48.1763C43.5609 48.0091 43.7739 47.8952 44.0059 47.8491C44.2378 47.8029 44.4782 47.8266 44.6967 47.9171C44.9152 48.0076 45.1019 48.1609 45.2333 48.3575C45.3647 48.5541 45.4348 48.7853 45.4348 49.0217C45.4348 49.3388 45.3088 49.643 45.0846 49.8672C44.8604 50.0914 44.5562 50.2174 44.2391 50.2174ZM53.1587 20.2304C48.5462 19.2087 43.8062 18.8863 39.0978 19.2739C37.5196 19.4174 36.0848 19.6326 34.6978 19.8717C35.4705 21.8975 35.7651 24.0743 35.5587 26.2326C35.0326 32.3783 30.9435 37.0174 26.4239 36.6109C21.9043 36.2043 18.6522 30.8957 19.1783 24.7739C19.2803 23.7174 19.4968 22.675 19.8239 21.6652C19.4413 21.6413 19.1065 21.6652 18.7239 21.6174C14.5281 21.3718 10.3647 20.7313 6.28913 19.7043C6.11247 19.6568 5.92724 19.6504 5.74771 19.6857C5.56819 19.7209 5.39916 19.7969 5.25362 19.9078C5.10809 20.0187 4.98995 20.1615 4.90829 20.3252C4.82663 20.4889 4.78363 20.6692 4.78261 20.8522V42.7087C4.78445 42.9573 4.86376 43.1992 5.00948 43.4006C5.1552 43.6021 5.3601 43.7531 5.59565 43.8326C9.82973 45.2319 14.2648 45.9266 18.7239 45.8891C26.2326 45.8891 32.6652 43.5457 39.0978 43.5457C43.6649 43.6417 48.2027 44.3003 52.6087 45.5065C52.7838 45.5498 52.9664 45.5529 53.1428 45.5157C53.3193 45.4784 53.4851 45.4017 53.6277 45.2913C53.7703 45.1809 53.8861 45.0396 53.9664 44.8781C54.0466 44.7166 54.0894 44.539 54.0913 44.3587V21.4022C54.0925 21.1299 54.0008 20.8653 53.8312 20.6522C53.6616 20.4391 53.4243 20.2903 53.1587 20.2304ZM11.9565 5.97826C11.9565 5.74178 11.8864 5.51062 11.755 5.31399C11.6236 5.11737 11.4369 4.96412 11.2184 4.87362C10.9999 4.78313 10.7595 4.75945 10.5276 4.80558C10.2957 4.85172 10.0826 4.96559 9.91542 5.13281C9.7482 5.30002 9.63433 5.51307 9.58819 5.745C9.54206 5.97693 9.56573 6.21734 9.65623 6.43582C9.74673 6.65429 9.89998 6.84103 10.0966 6.97241C10.2932 7.10379 10.5244 7.17391 10.7609 7.17391C11.078 7.17391 11.3821 7.04794 11.6063 6.82371C11.8306 6.59949 11.9565 6.29537 11.9565 5.97826ZM5.97826 2.3913H4.78261V1.19565C4.78261 0.878546 4.65664 0.574427 4.43241 0.350198C4.20818 0.12597 3.90406 0 3.58696 0C3.26985 0 2.96573 0.12597 2.7415 0.350198C2.51727 0.574427 2.3913 0.878546 2.3913 1.19565V2.3913H1.19565C0.878545 2.3913 0.574427 2.51727 0.350198 2.7415C0.12597 2.96573 0 3.26985 0 3.58696C0 3.90406 0.12597 4.20818 0.350198 4.43241C0.574427 4.65664 0.878545 4.78261 1.19565 4.78261H2.3913V5.97826C2.3913 6.29537 2.51727 6.59949 2.7415 6.82371C2.96573 7.04794 3.26985 7.17391 3.58696 7.17391C3.90406 7.17391 4.20818 7.04794 4.43241 6.82371C4.65664 6.59949 4.78261 6.29537 4.78261 5.97826V4.78261H5.97826C6.29537 4.78261 6.59949 4.65664 6.82371 4.43241C7.04794 4.20818 7.17391 3.90406 7.17391 3.58696C7.17391 3.26985 7.04794 2.96573 6.82371 2.7415C6.59949 2.51727 6.29537 2.3913 5.97826 2.3913ZM53.8043 50.2174H52.6087V49.0217C52.6087 48.7046 52.4827 48.4005 52.2585 48.1763C52.0343 47.9521 51.7301 47.8261 51.413 47.8261C51.0959 47.8261 50.7918 47.9521 50.5676 48.1763C50.3434 48.4005 50.2174 48.7046 50.2174 49.0217V50.2174H49.0217C48.7046 50.2174 48.4005 50.3434 48.1763 50.5676C47.9521 50.7918 47.8261 51.0959 47.8261 51.413C47.8261 51.7302 47.9521 52.0343 48.1763 52.2585C48.4005 52.4827 48.7046 52.6087 49.0217 52.6087H50.2174V53.8044C50.2174 54.1215 50.3434 54.4256 50.5676 54.6498C50.7918 54.874 51.0959 55 51.413 55C51.7301 55 52.0343 54.874 52.2585 54.6498C52.4827 54.4256 52.6087 54.1215 52.6087 53.8044V52.6087H53.8043C54.1215 52.6087 54.4256 52.4827 54.6498 52.2585C54.874 52.0343 55 51.7302 55 51.413C55 51.0959 54.874 50.7918 54.6498 50.5676C54.4256 50.3434 54.1215 50.2174 53.8043 50.2174Z" fill="#5AC5C2"/>
<path d="M51.6295 12.0043C50.4806 11.7604 49.3242 11.553 48.1621 11.3825C44.3427 10.7859 40.4678 10.6255 36.6121 10.9043C34.0967 11.1388 31.5974 11.5221 29.1273 12.0521L28.0273 12.2673C24.2121 13.1473 20.2894 13.4695 16.3817 13.2238C13.6618 13.0539 10.9638 12.6296 8.32299 11.9564C7.3169 11.6952 6.32683 11.3759 5.35777 10.9999C5.04072 10.879 4.72951 10.7434 4.42516 10.5934C4.20267 10.4952 3.95945 10.4533 3.71694 10.4713C3.47442 10.4893 3.24007 10.5667 3.03452 10.6967C2.82897 10.8266 2.65854 11.0051 2.53824 11.2165C2.41795 11.4278 2.35149 11.6655 2.34473 11.9086V15.376C2.34473 15.6931 2.4707 15.9972 2.69492 16.2214C2.91915 16.4457 3.22327 16.5716 3.54038 16.5716C3.85749 16.5716 4.1616 16.4457 4.38583 16.2214C4.61006 15.9972 4.73603 15.6931 4.73603 15.376V13.3195C5.70804 13.6802 6.69772 13.9915 7.70125 14.2521C9.06478 14.6088 10.4455 14.8962 11.8382 15.1129C11.4317 19.4651 7.65342 21.5216 3.54038 21.5216C3.22327 21.5216 2.91915 21.6476 2.69492 21.8718C2.4707 22.0961 2.34473 22.4002 2.34473 22.7173V38.8586C2.34473 40.676 9.85342 43.2825 16.286 43.2825C19.9094 43.2258 23.5198 42.8335 27.0708 42.1108C30.2241 41.4283 33.4346 41.044 36.6599 40.9629C37.1701 40.9629 37.6962 40.9789 38.2382 41.0108C40.7105 41.1689 43.1658 41.5288 45.5795 42.0869C47.0041 42.4077 48.416 42.7826 49.8121 43.2108C50.1806 43.2937 50.56 43.3179 50.936 43.2825C51.8926 43.2108 52.5621 42.9238 52.5621 41.8238C52.5642 40.6282 52.5642 39.4325 52.5621 38.2369C52.5621 37.9198 52.4362 37.6156 52.2119 37.3914C51.9877 37.1672 51.6836 37.0412 51.3665 37.0412C51.0494 37.0412 50.7452 37.1672 50.521 37.3914C50.2968 37.6156 50.1708 37.9198 50.1708 38.2369C50.1688 39.0977 50.1688 39.9586 50.1708 40.8195C48.8208 40.4129 47.4569 40.0539 46.0817 39.7434C45.5078 39.6238 44.9578 39.5282 44.4078 39.4325C44.9309 37.907 45.8516 36.5488 47.0748 35.4979C48.2981 34.447 49.7796 33.7415 51.3665 33.4543C51.6752 33.4419 51.9672 33.3105 52.1812 33.0876C52.3952 32.8647 52.5145 32.5676 52.5143 32.2586C52.5143 31.5412 52.5382 30.6325 52.5621 29.2695L52.6817 25.1086C52.8013 20.9716 52.8491 17.4803 52.8491 13.6064C52.8537 13.2255 52.7283 12.8544 52.4935 12.5544C52.2587 12.2544 51.9286 12.0435 51.5578 11.9564L51.6295 12.0043ZM4.78386 38.8586V38.3325C4.79776 38.5076 4.79776 38.6835 4.78386 38.8586ZM7.53386 39.4325C6.69039 39.1462 5.86746 38.8027 5.07081 38.4043C4.97442 38.3579 4.87875 38.3101 4.78386 38.2608V35.1999C6.03428 35.3905 7.19352 35.9682 8.09857 36.8518C9.00363 37.7354 9.60898 38.8805 9.82951 40.126C9.04038 39.9347 8.27516 39.7195 7.53386 39.4564V39.4325ZM50.3382 25.0847L50.2186 29.2456L50.1708 31.2543C48.2823 31.7728 46.5535 32.7555 45.1418 34.1129C43.7301 35.4703 42.6804 37.1593 42.0882 39.026C40.8591 38.8425 39.6223 38.7149 38.3817 38.6434C37.8078 38.6115 37.2418 38.5956 36.6839 38.5956C33.3224 38.669 29.9755 39.0613 26.6882 39.7673C23.2715 40.4683 19.7973 40.8526 16.3099 40.9151C14.9484 40.906 13.5894 40.7941 12.2447 40.5803C12.0534 36.5629 9.30342 33.8129 4.75994 32.7608V23.8651C7.0982 23.8844 9.36007 23.0334 11.1058 21.4777C12.8515 19.922 13.9564 17.7727 14.2056 15.4477C14.8512 15.5195 15.5208 15.5912 16.2143 15.639C20.3225 15.896 24.4463 15.5577 28.4578 14.6347L29.5578 14.4195C31.9334 13.9119 34.3368 13.5446 36.7556 13.3195C38.4896 13.179 40.2307 13.1471 41.9686 13.2238C42.4597 15.2376 43.5145 17.0698 45.0096 18.5055C46.5046 19.9413 48.3779 20.9211 50.4099 21.3303C50.386 22.5499 50.3621 23.7934 50.3143 25.1086L50.3382 25.0847ZM50.4817 18.8673C49.1078 18.5111 47.8423 17.8234 46.7958 16.8646C45.7494 15.9057 44.9541 14.7049 44.4795 13.3673C46.4054 13.5265 48.3213 13.7899 50.2186 14.1564L50.5056 14.2282C50.5056 15.8064 50.4817 17.3369 50.4578 18.8912L50.4817 18.8673ZM34.9621 21.5934C35.5502 23.5115 35.7613 25.5254 35.5839 27.5238C35.0099 34.2673 30.4186 39.4803 25.1339 39.0021C19.873 38.5238 16.2382 32.5934 16.8121 25.8499C16.9729 23.8594 17.5169 21.9187 18.4143 20.1347C18.7491 19.4651 19.1078 18.8195 19.3469 18.4608C19.4255 18.3142 19.5339 18.1856 19.6651 18.0833C19.7962 17.9809 19.9473 17.9071 20.1087 17.8665C20.27 17.8259 20.438 17.8194 20.602 17.8474C20.766 17.8754 20.9223 17.9374 21.061 18.0293C21.1997 18.1212 21.3177 18.241 21.4074 18.3811C21.4971 18.5212 21.5566 18.6784 21.5821 18.8428C21.6076 19.0073 21.5985 19.1752 21.5553 19.3358C21.5122 19.4965 21.436 19.6464 21.3317 19.776C21.0485 20.2429 20.7852 20.7216 20.5426 21.2108C19.7901 22.72 19.3354 24.36 19.2034 26.0412C18.7252 31.589 21.5708 36.2521 25.3491 36.5869C29.1273 36.9216 32.7143 32.8325 33.1926 27.2847C33.3509 25.5941 33.1804 23.8888 32.6904 22.2629C32.627 22.1098 32.5961 21.9452 32.5997 21.7795C32.6033 21.6138 32.6413 21.4506 32.7114 21.3004C32.7814 21.1502 32.8819 21.0161 33.0064 20.9068C33.131 20.7975 33.277 20.7153 33.435 20.6654C33.5931 20.6154 33.7598 20.5989 33.9245 20.6169C34.0893 20.6348 34.2485 20.6868 34.3921 20.7696C34.5357 20.8524 34.6606 20.9641 34.7587 21.0977C34.8568 21.2313 34.9261 21.3838 34.9621 21.5456V21.5934Z" fill="black"/>
</svg>
