<svg width="580" height="429" viewBox="0 0 580 429" fill="none" xmlns="http://www.w3.org/2000/svg">
<g clip-path="url(#clip0)">
<path d="M560.258 245.629H527.57C536.597 245.629 543.914 238.325 543.914 229.315C543.914 220.304 536.597 213 527.57 213H200.688C191.661 213 184.344 220.304 184.344 229.315C184.344 238.325 191.661 245.629 200.688 245.629H274.237C283.264 245.629 290.581 252.933 290.581 261.943C290.581 270.954 283.264 278.258 274.237 278.258H184.344C175.317 278.258 168 285.562 168 294.572C168 303.583 175.317 310.887 184.344 310.887H241.548V326.108C241.552 335.72 249.358 343.511 258.988 343.515H300.256C299.288 346.128 298.779 348.887 298.753 351.673C298.753 365.188 309.729 376.144 323.269 376.144H429.505C443.045 376.144 454.022 365.188 454.022 351.673C453.995 348.887 453.486 346.128 452.518 343.515H519.398C528.425 343.515 535.742 336.212 535.742 327.201C535.742 318.19 528.425 310.887 519.398 310.887H462.194C453.167 310.887 445.849 303.583 445.849 294.572C445.849 285.562 453.167 278.258 462.194 278.258H560.258C569.285 278.258 576.602 270.954 576.602 261.943C576.602 252.933 569.285 245.629 560.258 245.629Z" fill="#E9EBEE"/>
<path d="M150.566 428.702C144.685 427.307 141.049 421.41 142.444 415.53L154.851 363.208C155.067 362.3 155.398 361.422 155.836 360.597L177.707 319.447C180.543 314.111 187.167 312.085 192.505 314.92C197.841 317.757 199.868 324.382 197.032 329.719L175.821 369.626L163.737 420.58C162.349 426.431 156.473 430.102 150.566 428.702Z" fill="#FFB69E"/>
<path d="M224.095 414.978L209.955 366.729L219.841 318.61L205.791 254.635C204.278 247.748 197.469 243.392 190.583 244.904L168.347 249.787C161.46 251.3 157.104 258.109 158.616 264.995L172.665 328.971L196.493 323.738L187.971 364.973C187.609 366.728 187.682 368.545 188.186 370.265L203.093 421.132C204.792 426.93 210.869 430.255 216.671 428.556C222.471 426.855 225.794 420.777 224.095 414.978Z" fill="#FFB69E"/>
<path d="M181.393 359.145L197.033 329.719C199.87 324.382 197.842 317.757 192.506 314.92C187.169 312.085 180.545 314.111 177.708 319.447L156.609 359.145L177.462 366.54L181.393 359.145Z" fill="#3C5064"/>
<path d="M188.336 363.209H210.678L219.84 318.61L205.79 254.634C204.278 247.748 197.469 243.391 190.583 244.903L168.347 249.787C161.46 251.299 157.104 258.108 158.616 264.994L172.665 328.969L196.493 323.737L188.336 363.209Z" fill="#3C5A73"/>
<path d="M172.665 328.97L219.84 318.61L205.79 254.634C204.278 247.748 197.469 243.391 190.583 244.903L168.347 249.787C161.46 251.299 157.104 258.108 158.616 264.994L172.665 328.97Z" fill="#1C9585"/>
<path d="M174.495 242.28C185.625 242.28 194.649 233.257 194.649 222.126C194.649 210.995 185.625 201.972 174.495 201.972C163.364 201.972 154.34 210.995 154.34 222.126C154.34 233.257 163.364 242.28 174.495 242.28Z" fill="#FFB69E"/>
<path d="M85.8483 323.852H142.76C147.045 323.852 150.519 320.379 150.519 316.094V259.182C150.519 254.898 147.045 251.424 142.76 251.424H85.8483C81.5636 251.424 78.0898 254.897 78.0898 259.182V316.094C78.0898 320.379 81.5636 323.852 85.8483 323.852Z" fill="#C8A06E"/>
<path d="M102.986 251.424V279.166V282.961L106.759 279.188L110.531 282.961L114.304 279.188L118.077 282.961L121.849 279.188L125.622 282.961V279.166V272.133V251.424H102.986Z" fill="#B48255"/>
<path d="M171.755 224.357H144.734C141.744 224.357 139.32 221.933 139.32 218.943C139.32 215.953 141.744 213.529 144.734 213.529H171.755C174.745 213.529 177.169 215.953 177.169 218.943C177.169 221.933 174.745 224.357 171.755 224.357Z" fill="#3C5A73"/>
<path d="M184.988 217.655C184.988 216.241 186.134 215.094 187.549 215.094H193.381C189.941 205.819 180.11 200.258 170.172 202.44C159.999 204.674 153.324 214.23 154.465 224.357H194.519C194.671 223 194.688 221.615 194.556 220.216H187.549C186.135 220.216 184.988 219.069 184.988 217.655Z" fill="#1C9585"/>
<path d="M124.597 299.844L159.465 301.058C162.33 301.16 165.055 299.82 166.725 297.489L190.324 263.587C193.078 259.743 192.195 254.395 188.351 251.641C184.509 248.885 179.16 249.771 176.406 253.614L154.795 283.775L125.2 282.733C120.475 282.566 116.509 286.262 116.343 290.987C116.176 295.706 119.868 299.678 124.597 299.844Z" fill="#FFB69E"/>
<path d="M178.209 280.993L190.325 263.586C193.079 259.743 192.195 254.395 188.352 251.641C184.51 248.885 179.16 249.77 176.406 253.614L163.811 271.192L178.209 280.993Z" fill="#39AE96"/>
<path d="M16.9618 429C23.0159 429 27.9236 424.092 27.9236 418.038V330.42C27.9236 324.366 23.0159 319.458 16.9618 319.458C10.9077 319.458 6 324.366 6 330.42V418.038C6.00045 424.092 10.9081 429 16.9618 429Z" fill="#343E6B"/>
<path d="M43.4247 429C49.4788 429 54.3865 424.092 54.3865 418.038V330.42C54.3865 324.366 49.4788 319.458 43.4247 319.458C37.3706 319.458 32.4629 324.366 32.4629 330.42V418.038C32.4633 424.092 37.371 429 43.4247 429Z" fill="#414B82"/>
<path d="M54.3849 330.42H6V256.901C6 249.054 12.3618 242.692 20.2092 242.692H40.1761C48.0235 242.692 54.3853 249.054 54.3853 256.901L54.3849 330.42Z" fill="#64AFFF"/>
<path d="M30.1977 236.86C40.6525 236.86 49.1278 228.385 49.1278 217.93C49.1278 207.475 40.6525 199 30.1977 199C19.7429 199 11.2676 207.475 11.2676 217.93C11.2676 228.385 19.7429 236.86 30.1977 236.86Z" fill="#BA6746"/>
<path d="M49.8603 288.002L21.6458 262.576C17.6396 258.965 17.3189 252.791 20.9288 248.785C24.5392 244.779 30.7133 244.458 34.7194 248.068L59.4165 270.325L86.7331 265.65C92.0496 264.74 97.0956 268.312 98.0049 273.628C98.9145 278.943 95.3433 283.99 90.0272 284.9L58.0437 290.373C55.1094 290.876 52.0907 290.012 49.8603 288.002Z" fill="#BA6746"/>
<path d="M54.1441 265.573L34.7194 248.068C30.7133 244.458 24.5387 244.779 20.9288 248.785C17.3189 252.791 17.6396 258.966 21.6458 262.576L41.5628 280.524L54.1441 265.573Z" fill="#78BEFF"/>
<g clip-path="url(#clip1)" filter="url(#filter0_dd)">
<path d="M566.124 206.935H204.341C202.777 206.935 201.51 205.667 201.51 204.104V173.57H583.002V190.057C583.002 199.379 575.445 206.935 566.124 206.935Z" fill="#2D5871"/>
<path d="M582.989 187.829H438.334V49.5743H537.314C543.003 49.5743 548.332 52.354 551.587 57.0196L579.859 97.5431C581.896 100.463 582.989 103.939 582.989 107.501V187.829Z" fill="#3E5768"/>
<path d="M579.859 97.5431L551.587 57.0196C548.332 52.3548 543.003 49.5743 537.314 49.5743H501.351C507.039 49.5743 512.369 52.354 515.624 57.0196L543.896 97.5431C545.933 100.463 547.026 103.939 547.026 107.5V165.156C547.026 168.608 544.228 171.406 540.776 171.406H438.334V187.829H547.026H582.989V171.223V107.501C582.989 103.939 581.896 100.463 579.859 97.5431Z" fill="#2A424C"/>
<path d="M478.992 126.931V76.4673C478.992 75.0032 480.179 73.8165 481.643 73.8165H532.362C533.229 73.8165 534.041 74.2399 534.537 74.9501L558.27 108.967C558.58 109.411 558.746 109.941 558.746 110.483V126.93C558.746 128.394 557.559 129.581 556.095 129.581H481.643C480.179 129.581 478.992 128.395 478.992 126.931Z" fill="#21D8DE"/>
<path d="M520.803 235.132C540.042 235.132 555.638 219.536 555.638 200.298C555.638 181.059 540.042 165.463 520.803 165.463C501.565 165.463 485.969 181.059 485.969 200.298C485.969 219.536 501.565 235.132 520.803 235.132Z" fill="#32393F"/>
<path d="M520.807 213.237C513.673 213.237 507.869 207.433 507.869 200.298C507.869 193.165 513.673 187.36 520.807 187.36C527.942 187.36 533.746 193.164 533.746 200.298C533.746 207.433 527.942 213.237 520.807 213.237Z" fill="#E1EFFB"/>
<path d="M458.695 187.829H188.279C185.363 187.829 183 185.466 183 182.55V-13.8531C183 -16.7687 185.363 -19.132 188.279 -19.132L453.416 -19.132C456.332 -19.132 458.695 -16.7687 458.695 -13.8531V187.829Z" fill="#E8E8E8"/>
<path d="M453.416 -19.132L422.732 -19.132V156.202C422.732 164.599 415.925 171.406 407.528 171.406H183V182.55C183 185.466 185.363 187.829 188.279 187.829H458.695V-13.8531C458.695 -16.7679 456.332 -19.132 453.416 -19.132Z" fill="#CACACA"/>
<path d="M316.508 76.7287C314.929 76.7287 313.341 76.1865 312.048 75.0771L267.453 36.838L222.858 75.0771C219.984 77.542 215.656 77.2099 213.191 74.3349C210.726 71.4607 211.058 67.1326 213.933 64.6678L262.991 22.6013C265.558 20.399 269.348 20.399 271.916 22.6013L320.973 64.6678C323.848 67.1326 324.18 71.4607 321.716 74.3349C320.359 75.917 318.439 76.7287 316.508 76.7287Z" fill="#008489"/>
<path d="M305.867 82.5859L270.271 52.0633C268.65 50.6734 266.257 50.6734 264.636 52.0633L229.04 82.5867C228.082 83.4086 227.529 84.6086 227.529 85.8718V129.626C227.529 132.016 229.467 133.954 231.857 133.954H255.464V95.8914C255.464 94.0898 256.924 92.6297 258.725 92.6297H276.182C277.983 92.6297 279.443 94.0898 279.443 95.8914V133.954H303.05C305.439 133.954 307.377 132.016 307.377 129.626V85.8718C307.378 84.6086 306.825 83.4086 305.867 82.5859Z" fill="#008489"/>
<path d="M262.276 235.132C281.514 235.132 297.11 219.536 297.11 200.298C297.11 181.059 281.514 165.463 262.276 165.463C243.037 165.463 227.441 181.059 227.441 200.298C227.441 219.536 243.037 235.132 262.276 235.132Z" fill="#32393F"/>
<path d="M262.272 213.236C255.138 213.236 249.334 207.433 249.334 200.298C249.334 193.165 255.138 187.36 262.272 187.36C269.407 187.36 275.211 193.164 275.211 200.298C275.211 207.433 269.407 213.236 262.272 213.236Z" fill="#E1EFFB"/>
</g>
</g>
<defs>
<filter id="filter0_dd" x="177" y="-98" width="412" height="412" filterUnits="userSpaceOnUse" color-interpolation-filters="sRGB">
<feFlood flood-opacity="0" result="BackgroundImageFix"/>
<feColorMatrix in="SourceAlpha" type="matrix" values="0 0 0 0 0 0 0 0 0 0 0 0 0 0 0 0 0 0 127 0"/>
<feOffset dx="-2" dy="-2"/>
<feGaussianBlur stdDeviation="2"/>
<feColorMatrix type="matrix" values="0 0 0 0 0 0 0 0 0 0 0 0 0 0 0 0 0 0 0.25 0"/>
<feBlend mode="normal" in2="BackgroundImageFix" result="effect1_dropShadow"/>
<feColorMatrix in="SourceAlpha" type="matrix" values="0 0 0 0 0 0 0 0 0 0 0 0 0 0 0 0 0 0 127 0"/>
<feOffset dx="2" dy="2"/>
<feGaussianBlur stdDeviation="2"/>
<feColorMatrix type="matrix" values="0 0 0 0 0 0 0 0 0 0 0 0 0 0 0 0 0 0 0.25 0"/>
<feBlend mode="normal" in2="effect1_dropShadow" result="effect2_dropShadow"/>
<feBlend mode="normal" in="SourceGraphic" in2="effect2_dropShadow" result="shape"/>
</filter>
<clipPath id="clip0">
<rect width="580" height="429" fill="white"/>
</clipPath>
<clipPath id="clip1">
<rect width="400" height="400" fill="white" transform="translate(183 -92)"/>
</clipPath>
</defs>
</svg>
