<svg width="55" height="50" viewBox="0 0 55 50" fill="none" xmlns="http://www.w3.org/2000/svg">
<g clip-path="url(#clip0)">
<path d="M24.3174 21.6418C24.7939 20.8427 25.0468 19.9303 25.0495 18.9999C25.0497 17.7993 24.6351 16.6354 23.8758 15.7052C23.1166 14.7751 22.0592 14.1359 20.8828 13.8958V11.7083C20.8946 11.3919 20.9822 11.0831 21.138 10.8076C21.2939 10.5321 21.5136 10.298 21.7786 10.1249L32.487 3.87494C32.7651 3.73562 33.0718 3.66309 33.3828 3.66309C33.6938 3.66309 36.7993 3.66644 37.0493 3.66311L53.5493 3.66309C53.8042 3.83311 53.7996 7.67264 53.7993 7.90676L53.7993 7.91644C53.7993 8.16644 53.531 12.1045 53.5493 12.4164V28.4164C53.5493 30.0733 52.2062 31.4164 50.5493 31.4164H47.0493L39.6328 32.5416C39.6304 31.0295 39.1579 29.5555 38.2807 28.3238C37.4036 27.092 36.1652 26.1634 34.737 25.6666C35.7752 25.1317 36.6035 24.2634 37.0888 23.2012C37.5742 22.1389 37.6884 20.9444 37.4132 19.8094C37.138 18.6744 36.4894 17.6648 35.5714 16.9428C34.6534 16.2208 33.5194 15.8283 32.3516 15.8283C31.1837 15.8283 30.0497 16.2208 29.1317 16.9428C28.2138 17.6648 27.5651 18.6744 27.2899 19.8094C27.0147 20.9444 27.129 22.1389 27.6143 23.2012C28.0997 24.2634 28.928 25.1317 29.9661 25.6666C29.0485 25.9972 28.2057 26.5071 27.487 27.1666C26.2371 25.405 24.4207 24.1255 22.3411 23.5416C23.1584 23.097 23.841 22.4408 24.3174 21.6418Z" fill="#5AC5C2"/>
<path d="M61.2995 0L53.5493 0L32.1328 0C31.8565 0 31.5916 0.109747 31.3962 0.305097C31.2009 0.500448 31.0911 0.765399 31.0911 1.04167C31.0911 1.31793 31.2009 1.58289 31.3962 1.77824C31.5916 1.97359 31.8565 2.08333 32.1328 2.08333H53.5493H61.2995C61.852 2.08333 62.3819 2.30283 62.7726 2.69353C63.1633 3.08423 63.3828 3.61413 63.3828 4.16667V29.1667C63.3828 29.7192 63.1633 30.2491 62.7726 30.6398C62.3819 31.0305 61.852 31.25 61.2995 31.25H58.1745C57.8982 31.25 57.6333 31.3597 57.4379 31.5551C57.2426 31.7504 57.1328 32.0154 57.1328 32.2917C57.1328 32.5679 57.2426 32.8329 57.4379 33.0282C57.6333 33.2236 57.8982 33.3333 58.1745 33.3333H61.2995C62.4045 33.3333 63.4644 32.8943 64.2458 32.1129C65.0272 31.3315 65.4661 30.2717 65.4661 29.1667V4.16667C65.4661 3.0616 65.0272 2.00179 64.2458 1.22039C63.4644 0.438987 62.4045 0 61.2995 0ZM50.8828 31.25H23.7995C23.2469 31.25 22.717 31.0305 22.3263 30.6398C21.9356 30.2491 21.7161 29.7192 21.7161 29.1667V4.16667C21.7161 3.61413 21.9356 3.08423 22.3263 2.69353C22.717 2.30283 23.2469 2.08333 23.7995 2.08333H25.8828C26.1591 2.08333 26.424 1.97359 26.6194 1.77824C26.8147 1.58289 26.9245 1.31793 26.9245 1.04167C26.9245 0.765399 26.8147 0.500448 26.6194 0.305097C26.424 0.109747 26.1591 0 25.8828 0H23.7995C22.6944 0 21.6346 0.438987 20.8532 1.22039C20.0718 2.00179 19.6328 3.0616 19.6328 4.16667V29.1667C19.6328 30.2717 20.0718 31.3315 20.8532 32.1129C21.6346 32.8943 22.6944 33.3333 23.7995 33.3333H50.8828C51.1591 33.3333 51.424 33.2236 51.6194 33.0282C51.8147 32.8329 51.9245 32.5679 51.9245 32.2917C51.9245 32.0154 51.8147 31.7504 51.6194 31.5551C51.424 31.3597 51.1591 31.25 50.8828 31.25Z" fill="black"/>
<path d="M40.8008 4.1665C40.3508 4.1665 40.0508 4.60282 40.0508 5.25737V27.0756C40.0508 27.7302 40.3508 28.1665 40.8008 28.1665C41.2508 28.1665 41.5508 27.7302 41.5508 27.0756V5.25737C41.5508 4.60282 41.2508 4.1665 40.8008 4.1665Z" fill="black"/>
<path d="M44.8008 4.1665C44.3508 4.1665 44.0508 4.60282 44.0508 5.25737V27.0756C44.0508 27.7302 44.3508 28.1665 44.8008 28.1665C45.2508 28.1665 45.5508 27.7302 45.5508 27.0756V5.25737C45.5508 4.60282 45.2508 4.1665 44.8008 4.1665Z" fill="black"/>
<path d="M48.8008 4.1665C48.3508 4.1665 48.0508 4.60282 48.0508 5.25737V27.0756C48.0508 27.7302 48.3508 28.1665 48.8008 28.1665C49.2508 28.1665 49.5508 27.7302 49.5508 27.0756V5.25737C49.5508 4.60282 49.2508 4.1665 48.8008 4.1665Z" fill="black"/>
<path d="M52.8008 4.1665C52.3508 4.1665 52.0508 4.60282 52.0508 5.25737V27.0756C52.0508 27.7302 52.3508 28.1665 52.8008 28.1665C53.2508 28.1665 53.5508 27.7302 53.5508 27.0756V5.25737C53.5508 4.60282 53.2508 4.1665 52.8008 4.1665Z" fill="black"/>
<path d="M36.8008 4.1665C36.3508 4.1665 36.0508 4.40284 36.0508 4.75739V16.5756C36.0508 16.9302 36.3508 17.1665 36.8008 17.1665C37.2508 17.1665 37.5508 16.9302 37.5508 16.5756V4.75739C37.5508 4.40284 37.2508 4.1665 36.8008 4.1665Z" fill="black"/>
<path d="M32.8008 4.1665C32.3508 4.1665 32.0508 4.36648 32.0508 4.66648V14.6665C32.0508 14.9665 32.3508 15.1665 32.8008 15.1665C33.2508 15.1665 33.5508 14.9665 33.5508 14.6665V4.66648C33.5508 4.36648 33.2508 4.1665 32.8008 4.1665Z" fill="black"/>
<path d="M28.8008 4.1665C28.3508 4.1665 28.0508 4.37557 28.0508 4.68921V15.1438C28.0508 15.4574 28.3508 15.6665 28.8008 15.6665C29.2508 15.6665 29.5508 15.4574 29.5508 15.1438V4.68921C29.5508 4.37557 29.2508 4.1665 28.8008 4.1665Z" fill="black"/>
<path d="M24.8008 4.1665C24.3508 4.1665 24.0508 4.37557 24.0508 4.68921V15.1438C24.0508 15.4574 24.3508 15.6665 24.8008 15.6665C25.2508 15.6665 25.5508 15.4574 25.5508 15.1438V4.68921C25.5508 4.37557 25.2508 4.1665 24.8008 4.1665Z" fill="black"/>
<path d="M39.6913 32.5796V39.8911H37.6023V32.5796C37.6079 31.5253 37.2931 30.4942 36.6996 29.6229C36.106 28.7516 38.5854 29.4506 37.6023 29.07C36.6191 28.6894 40.7168 32.335 39.6913 32.5796C38.6657 32.8241 39.0266 33.6328 38.3209 34.4161C38.7849 35.5283 39.6863 38.6861 39.6913 39.8911H29.2462H27.1572L19.8352 30.9161L24.8964 32.9161C24.8882 31.612 26.7881 29.9977 26.1127 28.882C25.5606 27.9412 24.8051 27.1359 23.9014 26.525C22.9978 25.9142 25.3785 25.5778 24.2998 25.4161C23.9541 25.363 28.6495 29.0725 28.2998 29.07C26.3674 29.0917 26.2629 31.5496 24.8964 32.9161C23.5299 34.2826 29.2679 37.9587 29.2462 39.8911H12.5341H10.4451V32.5796C10.45 31.3745 10.6913 30.1822 11.1553 29.07C10.4497 28.2867 9.52269 27.7363 8.49717 27.4917C7.47164 27.2472 6.39601 27.32 5.41282 27.7006C4.42963 28.0812 3.5853 28.7516 2.99172 29.6229C2.39814 30.4942 2.08333 31.5253 2.08901 32.5796L1.36182 28.3626L6.5498 26.6661L12.179 27.2108L10.4451 32.5796V37.6661V39.8911H2.08901H0V32.5796C0.00678088 31.0669 0.482582 29.5935 1.36182 28.3626C2.24107 27.1316 3.48046 26.2037 4.90918 25.7067C3.86816 25.1704 3.03762 24.2997 2.55093 23.2346C2.06425 22.1694 1.94968 20.9716 2.22563 19.8335C2.50157 18.6954 3.15201 17.6831 4.07249 16.9591C4.99296 16.2352 6.13004 15.8416 7.3011 15.8416C8.47217 15.8416 9.60925 16.2352 10.5297 16.9591C11.4502 17.6831 12.1006 18.6954 12.3766 19.8335C12.6525 20.9716 12.538 22.1694 12.0513 23.2346C11.5646 24.2997 10.734 25.1704 9.69303 25.7067C10.6132 26.0382 11.4583 26.5495 12.179 27.2108C13.4323 25.4444 15.2536 24.1614 17.3388 23.5759C16.3191 23.021 15.5133 22.1421 15.0489 21.0781C14.5844 20.0142 14.4877 18.8258 14.774 17.7007C15.0603 16.5756 15.7133 15.578 16.6298 14.8655C17.5464 14.1529 18.6743 13.7661 19.8352 13.7661C20.9961 13.7661 22.124 14.1529 23.0405 14.8655C23.9571 15.578 24.6101 16.5756 24.8964 17.7007C25.1827 18.8258 25.086 20.0142 24.6215 21.0781C24.157 22.1421 23.3513 23.021 22.3316 23.5759C24.4168 24.1614 26.2381 25.4444 27.4914 27.2108C28.2121 26.5495 29.0572 26.0382 29.9774 25.7067C28.9363 25.1704 28.1058 24.2997 27.6191 23.2346C27.1324 22.1694 27.0179 20.9716 27.2938 19.8335C27.5697 18.6954 28.2202 17.6831 29.1407 16.9591C30.0611 16.2352 31.1982 15.8416 32.3693 15.8416C33.5403 15.8416 34.6774 16.2352 35.5979 16.9591C36.5184 17.6831 37.1688 18.6954 37.4448 19.8335C37.7207 20.9716 37.6061 22.1694 37.1194 23.2346C36.6328 24.2997 35.8022 25.1704 34.7612 25.7067C36.1938 26.2002 37.4377 27.1266 38.3209 28.3579C39.2041 29.5891 39.683 31.0643 39.6913 32.5796ZM10.4451 21.09C10.4451 20.4702 10.2613 19.8644 9.91698 19.3491C9.57266 18.8338 9.08327 18.4322 8.5107 18.195C7.93812 17.9578 7.30807 17.8958 6.70023 18.0167C6.09239 18.1376 5.53405 18.436 5.09582 18.8743C4.65758 19.3125 4.35915 19.8708 4.23824 20.4787C4.11733 21.0865 4.17939 21.7166 4.41655 22.2891C4.65372 22.8617 5.05535 23.3511 5.57066 23.6954C6.08596 24.0397 6.6918 24.2235 7.31155 24.2235C8.14261 24.2235 8.93963 23.8934 9.52728 23.3057C10.1149 22.7181 10.4451 21.9211 10.4451 21.09ZM22.9792 19.001C22.9773 18.3545 22.7756 17.7244 22.4016 17.197C22.0276 16.6697 21.4997 16.271 20.8901 16.0555C20.5554 15.9331 24.9779 17.7027 24.6215 17.7007C23.7905 17.7007 25.2092 20.4905 24.6215 21.0781C24.0339 21.6658 22.3316 22.7449 22.3316 23.5759C22.3316 24.407 17.3388 23.5759 17.6299 21.2167C18.2175 21.8044 19.0146 22.1345 19.8456 22.1345C20.202 22.1325 20.5554 22.0689 20.8901 21.9465C21.4997 21.731 22.0276 21.3322 22.4016 20.8049C22.7756 20.2776 22.9773 19.6475 22.9792 19.001ZM35.5132 21.09C35.5132 20.4702 35.3295 19.8644 34.9851 19.3491C34.6408 18.8338 34.1514 18.4322 33.5789 18.195C33.0063 17.9578 37.7273 19.7126 37.1194 19.8335C36.5116 19.9544 37.5577 22.7963 37.1194 23.2346C36.6812 23.6728 31.1707 25.3083 31.0498 25.9161C30.9289 26.524 28.9035 23.6509 29.1407 24.2235C29.3778 24.7961 30.1235 23.3511 30.6388 23.6954C31.1541 24.0397 31.76 24.2235 32.3797 24.2235C33.2108 24.2235 34.0078 23.8934 34.5955 23.3057C35.1831 22.7181 35.5132 21.9211 35.5132 21.09Z" fill="white"/>
<path d="M39.6913 32.5796V39.8911H37.6023V32.5796C37.6079 31.5253 37.2931 30.4942 36.6996 29.6229C36.106 28.7516 35.2616 28.0812 34.2785 27.7006C33.2953 27.32 32.2196 27.2472 31.1941 27.4917C30.1686 27.7363 29.2416 28.2867 28.5359 29.07C28.9999 30.1822 29.2413 31.3745 29.2462 32.5796V39.8911H27.1572V32.5796C27.149 31.2754 26.7881 29.9977 26.1127 28.882C25.5606 27.9412 24.8051 27.1359 23.9014 26.525C22.9978 25.9142 21.9689 25.5132 20.8901 25.3516C20.5445 25.2984 20.1954 25.2705 19.8456 25.268C17.9132 25.2897 16.0661 26.067 14.6996 27.4335C13.3331 28.8 12.5558 30.6472 12.5341 32.5796V39.8911H10.4451V32.5796C10.45 31.3745 10.6913 30.1822 11.1553 29.07C10.4497 28.2867 9.52269 27.7363 8.49717 27.4917C7.47164 27.2472 6.39601 27.32 5.41282 27.7006C4.42963 28.0812 3.5853 28.7516 2.99172 29.6229C2.39814 30.4942 2.08333 31.5253 2.08901 32.5796V39.8911H0V32.5796C0.00678088 31.0669 0.482582 29.5935 1.36182 28.3626C2.24107 27.1316 3.48046 26.2037 4.90918 25.7067C3.86816 25.1704 3.03762 24.2997 2.55093 23.2346C2.06425 22.1694 1.94968 20.9716 2.22563 19.8335C2.50157 18.6954 3.15201 17.6831 4.07249 16.9591C4.99296 16.2352 6.13004 15.8416 7.3011 15.8416C8.47217 15.8416 9.60925 16.2352 10.5297 16.9591C11.4502 17.6831 12.1006 18.6954 12.3766 19.8335C12.6525 20.9716 12.538 22.1694 12.0513 23.2346C11.5646 24.2997 10.734 25.1704 9.69303 25.7067C10.6132 26.0382 11.4583 26.5495 12.179 27.2108C13.4323 25.4444 15.2536 24.1614 17.3388 23.5759C16.3191 23.021 15.5133 22.1421 15.0489 21.0781C14.5844 20.0142 14.4877 18.8258 14.774 17.7007C15.0603 16.5756 15.7133 15.578 16.6298 14.8655C17.5464 14.1529 18.6743 13.7661 19.8352 13.7661C20.9961 13.7661 22.124 14.1529 23.0405 14.8655C23.9571 15.578 24.6101 16.5756 24.8964 17.7007C25.1827 18.8258 25.086 20.0142 24.6215 21.0781C24.157 22.1421 23.3513 23.021 22.3316 23.5759C24.4168 24.1614 26.2381 25.4444 27.4914 27.2108C28.2121 26.5495 29.0572 26.0382 29.9774 25.7067C28.9363 25.1704 28.1058 24.2997 27.6191 23.2346C27.1324 22.1694 27.0179 20.9716 27.2938 19.8335C27.5697 18.6954 28.2202 17.6831 29.1407 16.9591C30.0611 16.2352 31.1982 15.8416 32.3693 15.8416C33.5403 15.8416 34.6774 16.2352 35.5979 16.9591C36.5184 17.6831 37.1688 18.6954 37.4448 19.8335C37.7207 20.9716 37.6061 22.1694 37.1194 23.2346C36.6328 24.2997 35.8022 25.1704 34.7612 25.7067C36.1938 26.2002 37.4377 27.1266 38.3209 28.3579C39.2041 29.5891 39.683 31.0643 39.6913 32.5796ZM10.4451 21.09C10.4451 20.4702 10.2613 19.8644 9.91698 19.3491C9.57266 18.8338 9.08327 18.4322 8.5107 18.195C7.93812 17.9578 7.30807 17.8958 6.70023 18.0167C6.09239 18.1376 5.53405 18.436 5.09582 18.8743C4.65758 19.3125 4.35915 19.8708 4.23824 20.4787C4.11733 21.0865 4.17939 21.7166 4.41655 22.2891C4.65372 22.8617 5.05535 23.3511 5.57066 23.6954C6.08596 24.0397 6.6918 24.2235 7.31155 24.2235C8.14261 24.2235 8.93963 23.8934 9.52728 23.3057C10.1149 22.7181 10.4451 21.9211 10.4451 21.09ZM22.9792 19.001C22.9773 18.3545 22.7756 17.7244 22.4016 17.197C22.0276 16.6697 21.4997 16.271 20.8901 16.0555C20.5554 15.9331 20.202 15.8694 19.8456 15.8675C19.0146 15.8675 18.2175 16.1976 17.6299 16.7852C17.0422 17.3729 16.7121 18.1699 16.7121 19.001C16.7121 19.832 17.0422 20.6291 17.6299 21.2167C18.2175 21.8044 19.0146 22.1345 19.8456 22.1345C20.202 22.1325 20.5554 22.0689 20.8901 21.9465C21.4997 21.731 22.0276 21.3322 22.4016 20.8049C22.7756 20.2776 22.9773 19.6475 22.9792 19.001ZM35.5132 21.09C35.5132 20.4702 35.3295 19.8644 34.9851 19.3491C34.6408 18.8338 34.1514 18.4322 33.5789 18.195C33.0063 17.9578 32.3762 17.8958 31.7684 18.0167C31.1606 18.1376 30.6022 18.436 30.164 18.8743C29.7258 19.3125 29.4273 19.8708 29.3064 20.4787C29.1855 21.0865 29.2476 21.7166 29.4847 22.2891C29.7219 22.8617 30.1235 23.3511 30.6388 23.6954C31.1541 24.0397 31.76 24.2235 32.3797 24.2235C33.2108 24.2235 34.0078 23.8934 34.5955 23.3057C35.1831 22.7181 35.5132 21.9211 35.5132 21.09Z" fill="black"/>
</g>
<defs>
<clipPath id="clip0">
<rect width="54.1667" height="50" fill="white"/>
</clipPath>
</defs>
</svg>
