<svg width="14" height="18" viewBox="0 0 14 18" fill="none" xmlns="http://www.w3.org/2000/svg">
<path d="M12.8927 7.99759C12.8204 7.92507 12.722 7.88503 12.6198 7.88503C12.6191 7.88503 12.618 7.88503 12.6168 7.88503L12.0865 7.889V5.02944C12.0865 2.25637 9.83015 0 7.05709 0C4.28402 0 2.02765 2.25637 2.02765 5.02944V5.12915C2.02765 5.3435 2.20139 5.51705 2.41555 5.51705H3.76506C3.97903 5.51705 4.15296 5.3435 4.15296 5.12915V5.02944C4.15296 3.42818 5.45565 2.12493 7.05709 2.12493C8.65853 2.12493 9.96159 3.428 9.96159 5.02944V7.88975L9.91797 7.89296H1.38008C1.27754 7.89296 1.17858 7.93376 1.10587 8.00665C1.03317 8.07974 0.992188 8.17813 0.992188 8.28124L1.00012 17.6125C1.00012 17.8266 1.17405 18.0002 1.38802 18.0002L12.62 17.9923C12.834 17.9923 13.0075 17.8187 13.0075 17.6044V8.27293C13.0075 8.16963 12.9662 8.07029 12.8927 7.99759Z" fill="#B4BBC6"/>
</svg>
