<svg width="150" height="150" viewBox="0 0 150 150" fill="none" xmlns="http://www.w3.org/2000/svg">
<g filter="url(#filter0_d)">
<circle cx="75" cy="75" r="60" fill="url(#paint0_linear)"/>
</g>
<path d="M43.4213 99.6963H40.6369C40.2643 99.6963 39.9634 99.3939 39.9634 99.0228V89.3445C39.9634 88.9719 40.2643 88.671 40.6369 88.671H43.4213C43.7923 88.671 44.0947 88.9735 44.0947 89.3445V99.0228C44.0947 99.3954 43.7939 99.6963 43.4213 99.6963ZM41.3104 98.3493H42.7478V90.018H41.3104V98.3493Z" fill="white"/>
<path d="M52.6369 105H31.4235C31.0524 105 30.75 104.698 30.75 104.327V89.3445C30.75 88.9719 31.0524 88.671 31.4235 88.671H52.6369C53.0079 88.671 53.3104 88.9735 53.3104 89.3445V104.327C53.3104 104.699 53.0095 105 52.6369 105ZM32.097 103.653H51.9634V90.018H32.097V103.653Z" fill="white"/>
<path d="M67.663 99.6963H64.8786C64.506 99.6963 64.2051 99.3939 64.2051 99.0228V89.3445C64.2051 88.9719 64.5075 88.671 64.8786 88.671H67.663C68.0356 88.671 68.3364 88.9735 68.3364 89.3445V99.0228C68.3364 99.3954 68.034 99.6963 67.663 99.6963ZM65.5521 98.3493H66.9895V90.018H65.5521V98.3493Z" fill="white"/>
<path d="M76.8761 105H55.6627C55.2901 105 54.9893 104.698 54.9893 104.327V89.3445C54.9893 88.9719 55.2917 88.671 55.6627 88.671H76.8761C77.2487 88.671 77.5496 88.9735 77.5496 89.3445V104.327C77.5496 104.699 77.2487 105 76.8761 105ZM56.3362 103.653H76.2027V90.018H56.3362V103.653Z" fill="white"/>
<path d="M55.5414 81.6866H52.757C52.3859 81.6866 52.0835 81.3841 52.0835 81.0131V71.3347C52.0835 70.9621 52.3859 70.6613 52.757 70.6613H55.5414C55.9124 70.6613 56.2149 70.9637 56.2149 71.3347V81.0131C56.2149 81.3857 55.914 81.6866 55.5414 81.6866ZM53.4305 80.3396H54.8679V72.0082H53.4305V80.3396Z" fill="white"/>
<path d="M64.7565 86.9903H43.5431C43.1705 86.9903 42.8696 86.6878 42.8696 86.3168V71.3347C42.8696 70.9621 43.1705 70.6613 43.5431 70.6613H64.7565C65.1291 70.6613 65.43 70.9637 65.43 71.3347V86.3168C65.43 86.6894 65.1291 86.9903 64.7565 86.9903ZM44.2166 85.6433H64.083V72.0082H44.2166V85.6433Z" fill="white"/>
<path d="M109.485 105H77.3068C76.9342 105 76.6333 104.697 76.6333 104.326C76.6333 103.954 76.9342 103.653 77.3068 103.653H109.485C113.434 103.653 116.645 100.441 116.645 96.4924V53.5075C116.645 49.5601 113.432 46.347 109.485 46.347H77.3068C73.3579 46.347 70.1463 49.5585 70.1463 53.5075V89.0793C70.1463 89.452 69.8438 89.7528 69.4728 89.7528C69.1002 89.7528 68.7993 89.4504 68.7993 89.0793V53.5075C68.7993 48.8164 72.6158 45 77.3068 45H109.485C114.176 45 117.992 48.8164 117.992 53.5075V96.4924C117.992 101.183 114.176 105 109.485 105Z" fill="white"/>
<path d="M93.3957 84.234C93.0246 84.234 92.7222 83.9331 92.7222 83.5605V45.6735C92.7222 45.3024 93.0246 45 93.3957 45C93.7667 45 94.0692 45.3024 94.0692 45.6735V83.5605C94.0692 83.9331 93.7683 84.234 93.3957 84.234Z" fill="white"/>
<path d="M117.319 84.2339H69.4728C69.1002 84.2339 68.7993 83.9331 68.7993 83.5605C68.7993 83.1878 69.1018 82.887 69.4728 82.887H117.319C117.69 82.887 117.992 83.1878 117.992 83.5605C117.992 83.9331 117.691 84.2339 117.319 84.2339Z" fill="white"/>
<path d="M117.319 94.7995H76.8766C76.5056 94.7995 76.2031 94.497 76.2031 94.126C76.2031 93.755 76.5056 93.4525 76.8766 93.4525H117.319C117.69 93.4525 117.992 93.755 117.992 94.126C117.992 94.4986 117.691 94.7995 117.319 94.7995Z" fill="white"/>
<path d="M105.782 91.0344C104.741 91.0344 103.894 90.1878 103.894 89.1464C103.894 88.105 104.741 87.26 105.782 87.26C106.823 87.26 107.67 88.1065 107.67 89.1464C107.67 90.1878 106.823 91.0344 105.782 91.0344ZM105.782 88.607C105.484 88.607 105.241 88.8486 105.241 89.1464C105.241 89.4442 105.484 89.6874 105.782 89.6874C106.08 89.6874 106.323 89.4442 106.323 89.1464C106.323 88.8486 106.081 88.607 105.782 88.607Z" fill="white"/>
<path d="M81.449 91.0344C80.4076 91.0344 79.561 90.1878 79.561 89.1464C79.561 88.105 80.4076 87.26 81.449 87.26C82.4904 87.26 83.3369 88.1065 83.3369 89.1464C83.3369 90.1878 82.4904 91.0344 81.449 91.0344ZM81.449 88.607C81.1512 88.607 80.908 88.8486 80.908 89.1464C80.908 89.4442 81.1512 89.6874 81.449 89.6874C81.7468 89.6874 81.99 89.4442 81.99 89.1464C81.99 88.8486 81.7483 88.607 81.449 88.607Z" fill="white"/>
<path d="M105.782 101.478C104.741 101.478 103.894 100.631 103.894 99.59C103.894 98.5486 104.741 97.702 105.782 97.702C106.823 97.702 107.67 98.5486 107.67 99.59C107.67 100.631 106.823 101.478 105.782 101.478ZM105.782 99.0506C105.484 99.0506 105.241 99.2922 105.241 99.5915C105.241 99.8909 105.484 100.133 105.782 100.133C106.08 100.133 106.323 99.8893 106.323 99.5915C106.323 99.2938 106.081 99.0506 105.782 99.0506Z" fill="white"/>
<path d="M81.449 101.478C80.4076 101.478 79.561 100.631 79.561 99.59C79.561 98.5486 80.4076 97.702 81.449 97.702C82.4904 97.702 83.3369 98.5486 83.3369 99.59C83.3369 100.631 82.4904 101.478 81.449 101.478ZM81.449 99.0506C81.1512 99.0506 80.908 99.2922 80.908 99.5915C80.908 99.8909 81.1512 100.133 81.449 100.133C81.7468 100.133 81.99 99.8893 81.99 99.5915C81.99 99.2938 81.7483 99.0506 81.449 99.0506Z" fill="white"/>
<path d="M97.0797 78.5265C96.7071 78.5265 96.4062 78.2241 96.4062 77.853V67.9643C96.4062 67.5932 96.7071 67.2908 97.0797 67.2908C97.4508 67.2908 97.7532 67.5932 97.7532 67.9643V77.853C97.7532 78.2256 97.4523 78.5265 97.0797 78.5265Z" fill="white"/>
<path d="M89.7526 78.5265C89.3815 78.5265 89.0791 78.2241 89.0791 77.853V67.9643C89.0791 67.5932 89.3815 67.2908 89.7526 67.2908C90.1236 67.2908 90.4261 67.5932 90.4261 67.9643V77.853C90.4261 78.2256 90.1252 78.5265 89.7526 78.5265Z" fill="white"/>
<defs>
<filter id="filter0_d" x="0" y="0" width="150" height="150" filterUnits="userSpaceOnUse" color-interpolation-filters="sRGB">
<feFlood flood-opacity="0" result="BackgroundImageFix"/>
<feColorMatrix in="SourceAlpha" type="matrix" values="0 0 0 0 0 0 0 0 0 0 0 0 0 0 0 0 0 0 127 0"/>
<feOffset/>
<feGaussianBlur stdDeviation="7.5"/>
<feColorMatrix type="matrix" values="0 0 0 0 0 0 0 0 0 0 0 0 0 0 0 0 0 0 0.25 0"/>
<feBlend mode="normal" in2="BackgroundImageFix" result="effect1_dropShadow"/>
<feBlend mode="normal" in="SourceGraphic" in2="effect1_dropShadow" result="shape"/>
</filter>
<linearGradient id="paint0_linear" x1="15" y1="-13.125" x2="128.625" y2="170.625" gradientUnits="userSpaceOnUse">
<stop stop-color="#353C4C" stop-opacity="0.7"/>
<stop offset="0.59116" stop-color="#353C4C"/>
<stop offset="1" stop-color="#353C4C" stop-opacity="0.7"/>
</linearGradient>
</defs>
</svg>
