<?xml version="1.0" standalone="no"?>
<!DOCTYPE svg PUBLIC "-//W3C//DTD SVG 20010904//EN"
 "http://www.w3.org/TR/2001/REC-SVG-20010904/DTD/svg10.dtd">
<svg version="1.0" xmlns="http://www.w3.org/2000/svg"
 width="492.000000pt" height="492.000000pt" viewBox="0 0 492.000000 492.000000"
 preserveAspectRatio="xMidYMid meet">
<g transform="translate(0.000000,492.000000) scale(0.100000,-0.100000)"
fill="#000000" stroke="none">
<path d="M2388 4755 c-2 -1 -48 -5 -103 -9 -55 -3 -111 -8 -125 -11 -13 -2
-40 -7 -60 -10 -20 -3 -88 -19 -152 -35 -671 -169 -1169 -691 -1314 -1375 -6
-32 -24 -138 -30 -185 -10 -74 -11 -351 -1 -420 50 -356 257 -780 563 -1155
99 -121 128 -153 384 -425 19 -20 71 -74 114 -121 206 -218 557 -587 690 -724
101 -104 119 -118 129 -104 17 23 113 133 168 193 26 28 59 65 74 81 29 32
181 196 236 255 61 66 609 637 660 689 28 29 174 205 223 269 115 151 267 415
340 592 45 109 98 289 119 406 18 99 23 157 21 263 -1 75 -4 150 -7 166 -3 17
-8 55 -12 85 -11 93 -62 293 -101 397 -189 509 -583 891 -1104 1071 -63 22
-142 45 -175 53 -33 7 -62 13 -65 14 -3 1 -27 5 -55 10 -27 4 -58 9 -69 11
-58 10 -340 26 -348 19z m-299 -304 c-8 -10 -39 -51 -70 -92 -93 -124 -162
-248 -227 -404 -59 -145 -110 -320 -127 -440 -3 -16 -7 -40 -9 -52 -3 -12 -8
-53 -12 -90 -4 -37 -8 -81 -10 -98 -6 -54 -5 -318 1 -390 12 -134 38 -314 80
-550 21 -115 72 -352 101 -470 20 -77 37 -147 39 -155 31 -140 143 -512 230
-765 4 -11 -14 2 -40 30 -27 28 -91 96 -144 151 -53 56 -155 164 -227 240 -72
77 -150 159 -173 184 -83 88 -246 297 -324 415 -92 141 -213 381 -258 515 -57
170 -78 296 -74 455 4 162 15 250 51 393 121 487 443 859 909 1049 76 31 244
84 294 92 2 1 -3 -7 -10 -18z m923 -36 c627 -207 1044 -785 1062 -1474 2 -79
-6 -185 -19 -241 -3 -14 -7 -34 -9 -45 -72 -334 -290 -729 -580 -1050 -64 -71
-95 -103 -325 -341 -69 -72 -166 -173 -215 -225 -49 -52 -87 -86 -83 -76 33
89 190 605 202 666 2 9 19 79 38 156 64 260 125 557 151 740 4 23 8 50 10 62
3 12 7 43 11 70 4 26 9 59 11 73 25 161 25 625 -1 702 -2 7 -6 31 -9 53 -38
304 -206 698 -397 927 -21 26 -39 49 -39 51 0 7 101 -18 192 -48z m-472 -22
c200 -203 347 -462 425 -746 28 -102 28 -106 40 -177 4 -25 9 -54 11 -65 24
-123 24 -521 0 -652 -5 -26 -15 -91 -22 -138 -3 -22 -14 -87 -24 -145 -11 -58
-22 -120 -25 -137 -12 -77 -16 -97 -20 -102 -2 -4 -6 -26 -10 -50 -3 -24 -10
-54 -15 -67 -5 -13 -8 -24 -5 -24 2 0 -1 -15 -6 -32 -5 -18 -12 -46 -15 -63
-21 -117 -139 -546 -214 -780 -42 -129 -149 -429 -189 -530 -14 -36 -180 417
-295 808 -31 104 -58 198 -61 210 -2 12 -23 96 -46 187 -22 91 -42 172 -44
180 -23 106 -76 381 -85 435 -6 39 -13 81 -15 95 -49 273 -59 606 -25 810 5
30 12 71 15 90 40 237 168 528 324 735 61 82 201 225 219 225 8 0 45 -30 82
-67z"/>
</g>
</svg>
