<svg width="25" height="25" viewBox="0 0 25 25" fill="none" xmlns="http://www.w3.org/2000/svg">
<path d="M16.6953 2.86029C12.8814 -0.95343 6.67383 -0.95343 2.85986 2.86029C-0.953286 6.67484 -0.953286 12.8811 2.85986 16.6957C6.2563 20.0911 11.5461 20.4548 15.3576 17.8035C15.4378 18.183 15.6213 18.5451 15.9165 18.8402L21.4709 24.3942C22.2803 25.2019 23.5883 25.2019 24.3936 24.3942C25.2022 23.5857 25.2022 22.2778 24.3936 21.4717L18.8392 15.9161C18.5457 15.6234 18.1827 15.439 17.8032 15.3588C20.4564 11.5468 20.0926 6.25816 16.6953 2.86029ZM14.9417 14.9422C12.0943 17.7894 7.46011 17.7894 4.61348 14.9422C1.76767 12.0949 1.76767 7.46189 4.61348 4.61462C7.46011 1.76818 12.0943 1.76818 14.9417 4.61462C17.7892 7.46189 17.7892 12.0949 14.9417 14.9422Z" fill="#353C4C"/>
</svg>
