<svg width="35" height="35" viewBox="0 0 35 35" fill="none" xmlns="http://www.w3.org/2000/svg">
<path d="M23.3735 4.00441C18.0339 -1.3348 9.34336 -1.3348 4.0038 4.00441C-1.3346 9.34477 -1.3346 18.0336 4.0038 23.3739C8.75883 28.1275 16.1645 28.6368 21.5006 24.9249C21.6129 25.4562 21.8699 25.9631 22.2831 26.3763L30.0592 34.1519C31.1924 35.2827 33.0236 35.2827 34.151 34.1519C35.283 33.0199 35.283 31.1889 34.151 30.0604L26.3749 22.2825C25.964 21.8728 25.4558 21.6147 24.9245 21.5024C28.6389 16.1655 28.1296 8.76143 23.3735 4.00441ZM20.9184 20.919C16.932 24.9052 10.4442 24.9052 6.45887 20.919C2.47474 16.9329 2.47474 10.4466 6.45887 6.46047C10.4442 2.47545 16.932 2.47545 20.9184 6.46047C24.9048 10.4466 24.9048 16.9329 20.9184 20.919Z" fill="#B4BBC6"/>
</svg>
