<svg width="62" height="40" viewBox="0 0 62 40" fill="none" xmlns="http://www.w3.org/2000/svg">
<path d="M58.0367 19.6408L54.4681 14.5256C54.2288 14.1823 53.8361 13.9775 53.4176 13.9775H45.7904C45.0843 13.9775 44.5098 14.5519 44.5098 15.2581V22.8466C44.5098 23.5528 45.0843 24.1272 45.7904 24.1272H56.9864C57.6925 24.1272 58.2671 23.5528 58.2671 22.8466V20.3735C58.2671 20.1099 58.1873 19.8564 58.0367 19.6408ZM56.503 22.3632H46.2737V15.7415H53.1653L56.503 20.5254V22.3632Z" fill="black"/>
<path d="M8.68131 6.24L38.3954 25.1386C38.8333 25.4194 39.1271 25.7725 39.2403 26.1542C39.3535 26.5359 39.2813 26.9296 39.0325 27.2865C38.7838 27.6434 38.3694 27.9479 37.8407 28.1624C37.3119 28.377 36.6919 28.4921 36.0573 28.4935H6.34315C5.48187 28.4935 4.65587 28.2844 4.04686 27.9121C3.43784 27.5398 3.0957 27.0349 3.0957 26.5084V7.60976C3.09827 7.21469 3.2936 6.82908 3.65672 6.50226C4.01984 6.17545 4.53422 5.92229 5.13403 5.7752C5.73385 5.62811 6.39182 5.59377 7.02375 5.67657C7.65567 5.75937 8.23281 5.95555 8.68131 6.24Z" fill="#5AC5C2"/>
<path d="M61.9136 31.9995V19.9247C61.9136 19.2049 61.6959 18.5126 61.2841 17.9226L57.0326 11.8287C56.3788 10.8914 55.3059 10.3318 54.163 10.3318H52.084C51.5969 10.3318 51.2021 10.7266 51.2021 11.2137C51.2021 11.7008 51.5969 12.0956 52.084 12.0956H54.163C54.7298 12.0956 55.2617 12.373 55.586 12.8379L59.8376 18.9318C60.0417 19.2244 60.1496 19.5676 60.1496 19.9245V31.122H57.1444C57.123 31.0797 57.1004 31.0382 57.078 30.9966C57.0701 30.9821 57.0628 30.9674 57.0548 30.9529C57.0133 30.8772 56.9704 30.8025 56.9259 30.729C56.9109 30.7041 56.895 30.6797 56.8797 30.6549C56.8508 30.6086 56.8214 30.5625 56.7913 30.517C56.7685 30.4827 56.7457 30.4483 56.7223 30.4145C56.7022 30.3853 56.6815 30.3568 56.6609 30.3281C55.6478 28.9115 54.047 27.9436 52.2172 27.7838C52.1612 27.7788 52.1051 27.7744 52.0488 27.771C52.017 27.7691 51.9851 27.7672 51.9532 27.7658C51.8627 27.7617 51.772 27.7589 51.681 27.7589C51.5899 27.7589 51.4992 27.7617 51.4087 27.7658C51.3768 27.7672 51.3449 27.7691 51.3131 27.771C51.2569 27.7745 51.2008 27.7788 51.1448 27.7838C49.3146 27.9436 47.7138 28.9117 46.7006 30.3287C46.6802 30.3572 46.6596 30.3856 46.6397 30.4144C46.6162 30.4485 46.5933 30.4828 46.5704 30.5174C46.5404 30.5626 46.5111 30.6085 46.4824 30.6546C46.4669 30.6796 46.451 30.7041 46.4358 30.7293C46.3914 30.8028 46.3485 30.8773 46.307 30.953C46.2992 30.9675 46.2917 30.9822 46.2838 30.9968C46.2614 31.0384 46.2388 31.08 46.2174 31.1222H43.2226V12.0959H46.604C47.0911 12.0959 47.486 11.701 47.486 11.2139C47.486 10.7268 47.0911 10.332 46.604 10.332H43.2226V1.67583C43.2226 0.751813 42.4708 1.45864e-08 41.5468 1.45864e-08H1.67583C0.751812 -0.000120914 0 0.751692 0 1.67571V21.1626C0 21.6498 0.394832 22.0445 0.881931 22.0445C1.36903 22.0445 1.76386 21.6497 1.76386 21.1626V1.76386H41.4585V11.2138V31.1223H18.2664C18.2456 31.0812 18.2236 31.0409 18.2018 31.0004C18.1932 30.9843 18.1849 30.968 18.1762 30.9519C18.1352 30.877 18.0927 30.8033 18.0487 30.7305C18.0327 30.7041 18.0162 30.6782 17.9998 30.6521C17.9719 30.6075 17.9436 30.5631 17.9146 30.5192C17.8911 30.4837 17.8675 30.4483 17.8434 30.4133C17.8246 30.3862 17.8053 30.3596 17.7862 30.333C16.7731 28.9138 15.171 27.9439 13.339 27.784C13.283 27.7791 13.227 27.7746 13.1707 27.7712C13.1389 27.7693 13.107 27.7675 13.075 27.766C12.9846 27.7619 12.8939 27.7591 12.8028 27.7591C12.7118 27.7591 12.6211 27.7619 12.5306 27.766C12.4987 27.7675 12.4668 27.7693 12.435 27.7712C12.3787 27.7747 12.3226 27.7791 12.2666 27.784C10.4353 27.9439 8.83346 28.9132 7.82044 30.3316C7.80085 30.359 7.78114 30.3861 7.76204 30.4138C7.73809 30.4485 7.71463 30.4835 7.69141 30.5188C7.66215 30.5631 7.63361 30.6077 7.60543 30.6528C7.58935 30.6787 7.57278 30.7044 7.55706 30.7305C7.51304 30.8034 7.47048 30.8772 7.42948 30.9521C7.42078 30.968 7.41255 30.9842 7.40397 31.0003C7.3822 31.0409 7.36019 31.0813 7.33927 31.1225H3.6651H1.76398V26.6821C1.76398 26.195 1.36915 25.8002 0.882052 25.8002C0.394952 25.8002 0 26.1947 0 26.6819V31.2104C0 32.1344 0.751812 32.8863 1.67583 32.8863H2.78317V34.4518C2.78317 35.1729 3.36979 35.7596 4.09101 35.7596H6.97915C7.77449 38.2172 10.0839 40 12.8028 40C15.5218 40 17.8311 38.2173 18.6265 35.7596H45.8572C46.6525 38.2172 48.9619 40 51.6808 40C54.3998 40 56.7092 38.2173 57.5045 35.7596H58.4952C60.381 35.7595 61.9154 34.2253 61.9154 32.3346L61.9136 31.9995ZM6.75857 32.9185C6.75337 32.9512 6.74914 32.9841 6.74454 33.0169C6.73572 33.079 6.72761 33.1413 6.72072 33.2037C6.71697 33.2377 6.71347 33.2718 6.71032 33.3059C6.70415 33.3712 6.69932 33.4367 6.69533 33.5024C6.69351 33.5324 6.69121 33.5623 6.68988 33.5924C6.68541 33.6878 6.68263 33.7836 6.68263 33.8794C6.68263 33.9181 6.68299 33.9568 6.68372 33.9955H4.54715V32.8861H6.76317C6.76135 32.8969 6.76026 32.9078 6.75857 32.9185ZM17.1539 34.0914C17.1513 34.1454 17.1469 34.1994 17.1422 34.2534C17.1409 34.2684 17.1402 34.2836 17.1388 34.2986C17.1328 34.3612 17.125 34.4239 17.1162 34.4865C17.1154 34.4929 17.1146 34.4996 17.1137 34.506C17.1051 34.5651 17.0948 34.624 17.0838 34.6829C16.7055 36.7024 14.9306 38.2359 12.8029 38.2359C10.6753 38.2359 8.90022 36.7024 8.52207 34.6829C8.51107 34.624 8.50079 34.5651 8.4922 34.506C8.49123 34.4996 8.49063 34.4929 8.48966 34.4865C8.48083 34.4239 8.47309 34.3612 8.46705 34.2986C8.4656 34.2836 8.46487 34.2685 8.46366 34.2534C8.45895 34.1993 8.45459 34.1454 8.45193 34.0914C8.44855 34.0212 8.44661 33.9506 8.44661 33.8794C8.44661 33.8081 8.44855 33.7372 8.45205 33.6667C8.45326 33.6427 8.45544 33.6187 8.45701 33.5947C8.46004 33.5485 8.46306 33.5024 8.46753 33.4566C8.47031 33.4274 8.47406 33.3985 8.47757 33.3694C8.48229 33.3292 8.48712 33.2891 8.49293 33.2492C8.49752 33.2175 8.50284 33.186 8.50817 33.1546C8.51433 33.1181 8.52062 33.0817 8.52763 33.0455C8.53416 33.0119 8.5413 32.9785 8.54868 32.945C8.55593 32.9117 8.56367 32.8785 8.57165 32.8455C8.58024 32.8104 8.58919 32.7754 8.59874 32.7404C8.60708 32.7095 8.61603 32.6787 8.62498 32.648C8.6355 32.6125 8.64614 32.577 8.65763 32.5416C8.66755 32.511 8.67807 32.4807 8.68859 32.4504C8.70032 32.4166 8.71217 32.3828 8.72475 32.3492C8.73237 32.329 8.74059 32.3091 8.74857 32.289C8.78231 32.2031 8.81835 32.1186 8.85716 32.0358C8.86188 32.0256 8.86623 32.0152 8.87107 32.0052C8.91352 31.9164 8.95947 31.83 9.0076 31.7448C9.01727 31.7276 9.02719 31.7105 9.03723 31.6934C9.14292 31.5124 9.26034 31.3396 9.38973 31.1773C9.38985 31.1772 9.38998 31.1771 9.38998 31.1769C10.1314 30.2468 11.2382 29.6403 12.4441 29.5388C12.4618 29.5374 12.4793 29.5361 12.4971 29.5348C12.5986 29.5276 12.7005 29.5229 12.8032 29.5229C12.9058 29.5229 13.0078 29.5276 13.1093 29.5348C13.1269 29.5361 13.1446 29.5374 13.1622 29.5388C14.368 29.6403 15.475 30.2468 16.2164 31.1769C16.2165 31.1771 16.2166 31.1772 16.2166 31.1773C16.346 31.3396 16.4634 31.5124 16.5691 31.6934C16.5791 31.7105 16.589 31.7276 16.5988 31.7448C16.6469 31.8298 16.6927 31.9164 16.7352 32.0052C16.74 32.0152 16.7442 32.0256 16.7491 32.0358C16.7879 32.1186 16.8241 32.2031 16.8577 32.289C16.8655 32.3091 16.8739 32.329 16.8815 32.3492C16.8941 32.3828 16.9059 32.4166 16.9177 32.4504C16.9282 32.4808 16.9387 32.511 16.9486 32.5416C16.96 32.5769 16.9707 32.6125 16.9813 32.648C16.9903 32.6787 16.9992 32.7095 17.0075 32.7404C17.0169 32.7754 17.026 32.8103 17.0346 32.8455C17.0427 32.8785 17.0503 32.9118 17.0576 32.945C17.0649 32.9784 17.072 33.0119 17.0786 33.0455C17.0856 33.0817 17.092 33.1181 17.0981 33.1546C17.1034 33.186 17.1087 33.2176 17.1133 33.2492C17.1191 33.2891 17.124 33.3292 17.1287 33.3694C17.1321 33.3984 17.1358 33.4274 17.1387 33.4566C17.1432 33.5023 17.1462 33.5485 17.1492 33.5947C17.1508 33.6187 17.153 33.6427 17.1542 33.6667C17.1576 33.7372 17.1596 33.8081 17.1596 33.8794C17.1593 33.9506 17.1573 34.0212 17.1539 34.0914ZM45.6366 32.9185C45.6314 32.9511 45.6272 32.984 45.6226 33.0167C45.6137 33.0789 45.6056 33.1412 45.5987 33.2037C45.595 33.2376 45.5916 33.2715 45.5883 33.3056C45.5822 33.3711 45.5773 33.4367 45.5733 33.5025C45.5715 33.5324 45.5692 33.5623 45.5679 33.5922C45.5634 33.6878 45.5606 33.7834 45.5606 33.8794C45.5606 33.9181 45.561 33.9568 45.5617 33.9955H18.922C18.9228 33.9568 18.9233 33.9181 18.9233 33.8794C18.9233 33.7834 18.9203 33.6878 18.916 33.5924C18.9145 33.5623 18.9124 33.5324 18.9106 33.5024C18.9066 33.4367 18.9017 33.3712 18.8956 33.3059C18.8924 33.2718 18.8889 33.2377 18.8852 33.2037C18.8783 33.1413 18.8702 33.079 18.8613 33.0169C18.8567 32.9841 18.8524 32.9512 18.8473 32.9185C18.8456 32.9078 18.8444 32.897 18.8427 32.8863H42.3407H45.6413C45.6395 32.897 45.6383 32.9078 45.6366 32.9185ZM56.032 34.0914C56.0293 34.1454 56.025 34.1994 56.0202 34.2534C56.0189 34.2684 56.0182 34.2836 56.0168 34.2986C56.0108 34.3612 56.0031 34.4239 55.9942 34.4865C55.9933 34.4929 55.9927 34.4996 55.9917 34.506C55.9831 34.5651 55.9728 34.624 55.9618 34.6829C55.5837 36.7024 53.8086 38.2359 51.681 38.2359C49.554 38.2359 47.7791 36.7031 47.4003 34.6843C47.3892 34.6251 47.3789 34.5658 47.3703 34.5063C47.3694 34.4992 47.3687 34.4921 47.3676 34.4849C47.3589 34.423 47.3512 34.3611 47.3452 34.2991C47.3436 34.283 47.3429 34.2667 47.3414 34.2506C47.3368 34.1976 47.3325 34.1446 47.33 34.0918C47.3266 34.0214 47.3245 33.9508 47.3245 33.8797C47.3245 33.8083 47.3264 33.7375 47.33 33.667C47.3312 33.6429 47.3333 33.619 47.3349 33.595C47.3379 33.5488 47.341 33.5026 47.3454 33.4568C47.3482 33.4278 47.352 33.3989 47.3553 33.37C47.3601 33.3296 47.3649 33.2893 47.3707 33.2494C47.3753 33.2181 47.3806 33.1869 47.3858 33.1557C47.392 33.1188 47.3984 33.0819 47.4055 33.0454C47.4119 33.0124 47.419 32.9795 47.4262 32.9466C47.4337 32.9125 47.4414 32.8786 47.4498 32.8448C47.4581 32.8104 47.467 32.7762 47.4763 32.7421C47.485 32.7102 47.4941 32.6784 47.5034 32.6467C47.5135 32.6122 47.5239 32.5778 47.535 32.5435C47.5454 32.5115 47.5563 32.4798 47.5673 32.4481C47.5786 32.4157 47.59 32.3833 47.602 32.3512C47.61 32.3299 47.6187 32.3088 47.6271 32.2878C47.6603 32.2034 47.6958 32.1202 47.734 32.0387C47.7392 32.0274 47.744 32.0159 47.7493 32.0048C47.7915 31.9168 47.8371 31.8308 47.8848 31.7464C47.8949 31.7285 47.9052 31.7106 47.9156 31.6928C48.0209 31.5125 48.1379 31.3406 48.2667 31.1788C48.2673 31.178 48.2678 31.1773 48.2684 31.1766C49.0098 30.2469 50.1164 29.6407 51.3219 29.5392C51.3396 29.5378 51.3572 29.5364 51.3749 29.5352C51.4763 29.528 51.5783 29.5232 51.681 29.5232C51.7836 29.5232 51.8856 29.528 51.987 29.5352C52.0047 29.5364 52.0223 29.5378 52.04 29.5392C53.2455 29.6407 54.352 30.2469 55.0934 31.1766C55.094 31.1773 55.0947 31.1781 55.0953 31.1789C55.224 31.3406 55.3409 31.5125 55.4462 31.6927C55.4566 31.7105 55.467 31.7284 55.4771 31.7464C55.5249 31.8308 55.5704 31.9167 55.6126 32.0048C55.6179 32.0159 55.6226 32.0274 55.6279 32.0387C55.6662 32.1202 55.7016 32.2034 55.7348 32.2878C55.7432 32.3089 55.7519 32.3299 55.7599 32.3512C55.772 32.3833 55.7832 32.4157 55.7946 32.4481C55.8057 32.4798 55.8166 32.5116 55.827 32.5435C55.838 32.5777 55.8484 32.612 55.8586 32.6462C55.868 32.6781 55.8772 32.7101 55.8859 32.7424C55.8951 32.7762 55.9038 32.8102 55.9121 32.8443C55.9205 32.8783 55.9283 32.9124 55.9358 32.9467C55.943 32.9794 55.95 33.0121 55.9564 33.0449C55.9635 33.0817 55.9701 33.1188 55.9762 33.1559C55.9814 33.1869 55.9867 33.218 55.9912 33.249C55.9971 33.2893 56.002 33.3299 56.0067 33.3706C56.0101 33.3992 56.0137 33.4278 56.0165 33.4564C56.021 33.5026 56.0241 33.5491 56.0271 33.5956C56.0287 33.6193 56.0309 33.643 56.032 33.6669C56.0354 33.7374 56.0374 33.8083 56.0374 33.8797C56.0373 33.9506 56.0354 34.0212 56.032 34.0914ZM58.4952 33.9957H57.8001C57.8008 33.957 57.8012 33.9183 57.8012 33.8796C57.8012 33.7836 57.7982 33.6878 57.7939 33.5924C57.7924 33.5624 57.7903 33.5325 57.7885 33.5026C57.7845 33.4368 57.7796 33.3712 57.7735 33.3058C57.7703 33.2717 57.7668 33.2377 57.7631 33.2038C57.7562 33.1413 57.7481 33.079 57.7392 33.0169C57.7346 32.9841 57.7303 32.9512 57.7252 32.9187C57.7235 32.9079 57.7223 32.8971 57.7206 32.8864H60.0586C59.8323 33.5317 59.217 33.9957 58.4952 33.9957Z" fill="black"/>
<path d="M51.6801 31.0518C50.121 31.0518 48.8525 32.3203 48.8525 33.8795C48.8525 35.4388 50.121 36.7072 51.6801 36.7072C53.2392 36.7072 54.5078 35.4388 54.5078 33.8795C54.5076 32.3203 53.2392 31.0518 51.6801 31.0518ZM51.6801 34.9431C51.0936 34.9431 50.6165 34.4659 50.6165 33.8794C50.6165 33.2929 51.0936 32.8157 51.6801 32.8157C52.2666 32.8157 52.7438 33.2929 52.7438 33.8794C52.7437 34.4659 52.2665 34.9431 51.6801 34.9431Z" fill="black"/>
<path d="M12.8033 31.0518C11.2441 31.0518 9.97559 32.3203 9.97559 33.8795C9.97559 35.4388 11.2441 36.7072 12.8033 36.7072C14.3624 36.7072 15.6309 35.4388 15.6309 33.8795C15.6309 32.3203 14.3624 31.0518 12.8033 31.0518ZM12.8033 34.9431C12.2168 34.9431 11.7396 34.4659 11.7396 33.8794C11.7396 33.2929 12.2168 32.8157 12.8033 32.8157C13.3898 32.8157 13.8669 33.2929 13.8669 33.8794C13.8669 34.4659 13.3898 34.9431 12.8033 34.9431Z" fill="black"/>
<path d="M19.0947 15.6154L14.5803 11.3745C14.0205 10.8486 13.1434 10.8486 12.5836 11.3745L8.06939 15.6151C7.77698 15.8895 7.60938 16.277 7.60938 16.6781V22.8471C7.60938 23.6512 8.26348 24.3052 9.06753 24.3052H12.0533V24.3053H15.1108H18.0964C18.9005 24.3053 19.5544 23.6512 19.5544 22.8472V16.6781C19.5544 16.2772 19.3868 15.8899 19.0947 15.6154ZM14.2289 22.5413H12.9353V19.4837H14.2289V22.5413ZM17.7906 22.5413H15.9929V18.9248C15.9929 18.2603 15.4522 17.7198 14.7877 17.7198H12.3764C11.7119 17.7198 11.1713 18.2604 11.1713 18.9248V22.5413H9.37348V16.8104L13.582 12.8569L17.7906 16.8104V22.5413Z" fill="black"/>
<path d="M21.5613 14.478L14.1864 7.54976C13.8469 7.23087 13.318 7.23099 12.9787 7.54976L5.60337 14.478C5.24833 14.8115 5.23079 15.3697 5.56431 15.7248C5.8982 16.0799 6.45628 16.0972 6.81109 15.7637L13.5825 9.40275L20.3537 15.7637C20.5239 15.9236 20.7408 16.0029 20.9573 16.0029C21.1924 16.0029 21.4267 15.9095 21.6004 15.7248C21.9339 15.3697 21.9164 14.8115 21.5613 14.478Z" fill="black"/>
</svg>
