<svg width="150" height="150" viewBox="0 0 150 150" fill="none" xmlns="http://www.w3.org/2000/svg">
<g filter="url(#filter0_d)">
<circle cx="75" cy="75" r="60" fill="url(#paint0_linear)"/>
</g>
<path d="M48.3402 98.8648H45.1193C44.7291 98.8648 44.4111 98.5468 44.4111 98.1567V86.9579C44.4111 86.5661 44.7291 86.2498 45.1193 86.2498H48.3402C48.7303 86.2498 49.0483 86.5678 49.0483 86.9579V98.1567C49.0483 98.5484 48.7303 98.8648 48.3402 98.8648ZM45.8274 97.4486H47.6321V87.666H45.8274V97.4486Z" fill="white"/>
<path d="M59.0014 105H34.4581C34.0664 105 33.75 104.682 33.75 104.292V86.9593C33.75 86.5676 34.068 86.2512 34.4581 86.2512H59.0014C59.3915 86.2512 59.7095 86.5692 59.7095 86.9593V104.292C59.7095 104.684 59.3915 105 59.0014 105ZM35.1662 103.584H58.2933V87.6675H35.1662V103.584Z" fill="white"/>
<path d="M76.3847 98.8648H73.1637C72.7736 98.8648 72.4556 98.5468 72.4556 98.1567V86.9579C72.4556 86.5661 72.7736 86.2498 73.1637 86.2498H76.3847C76.7764 86.2498 77.0928 86.5678 77.0928 86.9579V98.1567C77.0928 98.5484 76.7748 98.8648 76.3847 98.8648ZM73.8702 97.4486H75.6749V87.666H73.8702V97.4486Z" fill="white"/>
<path d="M87.0442 105H62.5026C62.1124 105 61.7944 104.682 61.7944 104.292V86.9593C61.7944 86.5676 62.1124 86.2512 62.5026 86.2512H87.0458C87.4376 86.2512 87.7539 86.5692 87.7539 86.9593V104.292C87.7523 104.684 87.4359 105 87.0442 105ZM63.2107 103.584H86.3377V87.6675H63.2107V103.584Z" fill="white"/>
<path d="M62.3617 78.0278H59.1407C58.749 78.0278 58.4326 77.7098 58.4326 77.3197V66.1225C58.4326 65.7308 58.749 65.4144 59.1407 65.4144H62.3617C62.7535 65.4144 63.0698 65.7308 63.0698 66.1225V77.3197C63.0698 77.7115 62.7535 78.0278 62.3617 78.0278ZM59.8489 76.6116H61.6536V66.8307H59.8489V76.6116Z" fill="white"/>
<path d="M73.0229 84.1649H48.4796C48.0895 84.1649 47.7715 83.8485 47.7715 83.4568V66.1225C47.7715 65.7308 48.0895 65.4144 48.4796 65.4144H73.0229C73.4147 65.4144 73.7311 65.7308 73.7311 66.1225V83.4551C73.7311 83.8469 73.4147 84.1649 73.0229 84.1649ZM49.1877 82.7486H72.3148V66.8323H49.1877V82.7486Z" fill="white"/>
<path d="M90.4061 78.0278H87.1852C86.7934 78.0278 86.4771 77.7098 86.4771 77.3197V66.1225C86.4771 65.7308 86.795 65.4144 87.1852 65.4144H90.4061C90.7963 65.4144 91.1143 65.7308 91.1143 66.1225V77.3197C91.1143 77.7115 90.7979 78.0278 90.4061 78.0278ZM87.8933 76.6116H89.698V66.8307H87.8933V76.6116Z" fill="white"/>
<path d="M101.067 84.1649H76.524C76.1323 84.1649 75.8159 83.8485 75.8159 83.4568V66.1225C75.8159 65.7308 76.1323 65.4144 76.524 65.4144H101.067C101.457 65.4144 101.775 65.7308 101.775 66.1225V83.4551C101.775 83.8469 101.457 84.1649 101.067 84.1649ZM77.2322 82.7486H100.359V66.8323H77.2322V82.7486Z" fill="white"/>
<path d="M76.4452 57.6134H73.2242C72.8341 57.6134 72.5161 57.2954 72.5161 56.9053V45.7081C72.5161 45.318 72.8341 45 73.2242 45H76.4452C76.8353 45 77.1533 45.318 77.1533 45.7081V56.9053C77.1533 57.2954 76.837 57.6134 76.4452 57.6134ZM73.9324 56.1972H75.7371V46.4162H73.9324V56.1972Z" fill="white"/>
<path d="M87.1069 63.7488H62.5636C62.1735 63.7488 61.8555 63.4308 61.8555 63.0407V45.7081C61.8555 45.318 62.1735 45 62.5636 45H87.1069C87.497 45 87.815 45.318 87.815 45.7081V63.0407C87.815 63.4324 87.4986 63.7488 87.1069 63.7488ZM63.2717 62.3326H86.3987V46.4162H63.2717V62.3326Z" fill="white"/>
<path d="M103.782 98.8648H100.561C100.169 98.8648 99.8525 98.5468 99.8525 98.1567V86.9579C99.8525 86.5661 100.169 86.2498 100.561 86.2498H103.782C104.173 86.2498 104.49 86.5678 104.49 86.9579V98.1567C104.49 98.5484 104.173 98.8648 103.782 98.8648ZM101.269 97.4486H103.074V87.666H101.269V97.4486Z" fill="white"/>
<path d="M114.443 105H89.9C89.5083 105 89.1919 104.682 89.1919 104.292V86.9593C89.1919 86.5676 89.5083 86.2512 89.9 86.2512H114.443C114.835 86.2512 115.151 86.5692 115.151 86.9593V104.292C115.151 104.684 114.835 105 114.443 105ZM90.6081 103.584H113.735V87.6675H90.6081V103.584Z" fill="white"/>
<defs>
<filter id="filter0_d" x="0" y="0" width="150" height="150" filterUnits="userSpaceOnUse" color-interpolation-filters="sRGB">
<feFlood flood-opacity="0" result="BackgroundImageFix"/>
<feColorMatrix in="SourceAlpha" type="matrix" values="0 0 0 0 0 0 0 0 0 0 0 0 0 0 0 0 0 0 127 0"/>
<feOffset/>
<feGaussianBlur stdDeviation="7.5"/>
<feColorMatrix type="matrix" values="0 0 0 0 0 0 0 0 0 0 0 0 0 0 0 0 0 0 0.25 0"/>
<feBlend mode="normal" in2="BackgroundImageFix" result="effect1_dropShadow"/>
<feBlend mode="normal" in="SourceGraphic" in2="effect1_dropShadow" result="shape"/>
</filter>
<linearGradient id="paint0_linear" x1="15" y1="-13.125" x2="128.625" y2="170.625" gradientUnits="userSpaceOnUse">
<stop stop-color="#353C4C" stop-opacity="0.7"/>
<stop offset="0.59116" stop-color="#353C4C"/>
<stop offset="1" stop-color="#353C4C" stop-opacity="0.7"/>
</linearGradient>
</defs>
</svg>
